<svg version="1.1" xmlns="http://www.w3.org/2000/svg" xmlns:xlink="http://www.w3.org/1999/xlink" width="588" height="524"><defs/><g><text fill="#eeeeee" stroke="none" font-family="Arial" font-size="24px" font-style="normal" font-weight="normal" text-decoration="none" x="0" y="0"></text><text fill="#eeeeee" stroke="none" font-family="Arial" font-size="24px" font-style="normal" font-weight="normal" text-decoration="none" x="0" y="30"></text><text fill="#eeeeee" stroke="none" font-family="Arial" font-size="24px" font-style="normal" font-weight="normal" text-decoration="none" x="0" y="60"></text><text fill="#eeeeee" stroke="none" font-family="Arial" font-size="24px" font-style="normal" font-weight="normal" text-decoration="none" x="0" y="90"></text><text fill="#eeeeee" stroke="none" font-family="Arial" font-size="24px" font-style="normal" font-weight="normal" text-decoration="none" x="0" y="120"></text><text fill="#eeeeee" stroke="none" font-family="Arial" font-size="24px" font-style="normal" font-weight="normal" text-decoration="none" x="0" y="150"></text><text fill="#eeeeee" stroke="none" font-family="Arial" font-size="24px" font-style="normal" font-weight="normal" text-decoration="none" x="0" y="180"></text><text fill="#eeeeee" stroke="none" font-family="Arial" font-size="24px" font-style="normal" font-weight="normal" text-decoration="none" x="0" y="210"></text><text fill="#eeeeee" stroke="none" font-family="Arial" font-size="24px" font-style="normal" font-weight="normal" text-decoration="none" x="0" y="240"></text><text fill="#eeeeee" stroke="none" font-family="Arial" font-size="24px" font-style="normal" font-weight="normal" text-decoration="none" x="0" y="270"></text><text fill="#eeeeee" stroke="none" font-family="Arial" font-size="24px" font-style="normal" font-weight="normal" text-decoration="none" x="0" y="300"></text><text fill="#eeeeee" stroke="none" font-family="Arial" font-size="24px" font-style="normal" font-weight="normal" text-decoration="none" x="0" y="330"></text><text fill="#eeeeee" stroke="none" font-family="Arial" font-size="24px" font-style="normal" font-weight="normal" text-decoration="none" x="0" y="360"></text><text fill="#eeeeee" stroke="none" font-family="Arial" font-size="24px" font-style="normal" font-weight="normal" text-decoration="none" x="0" y="390"></text><text fill="#eeeeee" stroke="none" font-family="Arial" font-size="24px" font-style="normal" font-weight="normal" text-decoration="none" x="0" y="420"></text><text fill="#eeeeee" stroke="none" font-family="Arial" font-size="24px" font-style="normal" font-weight="normal" text-decoration="none" x="0" y="450"></text><text fill="#eeeeee" stroke="none" font-family="Arial" font-size="24px" font-style="normal" font-weight="normal" text-decoration="none" x="0" y="480"></text><text fill="#eeeeee" stroke="none" font-family="Arial" font-size="24px" font-style="normal" font-weight="normal" text-decoration="none" x="0" y="510"></text><text fill="#eeeeee" stroke="none" font-family="Arial" font-size="24px" font-style="normal" font-weight="normal" text-decoration="none" x="200" y="0"></text><text fill="#eeeeee" stroke="none" font-family="Arial" font-size="24px" font-style="normal" font-weight="normal" text-decoration="none" x="200" y="30"></text><text fill="#eeeeee" stroke="none" font-family="Arial" font-size="24px" font-style="normal" font-weight="normal" text-decoration="none" x="200" y="60"></text><text fill="#eeeeee" stroke="none" font-family="Arial" font-size="24px" font-style="normal" font-weight="normal" text-decoration="none" x="200" y="90"></text><text fill="#eeeeee" stroke="none" font-family="Arial" font-size="24px" font-style="normal" font-weight="normal" text-decoration="none" x="200" y="120"></text><text fill="#eeeeee" stroke="none" font-family="Arial" font-size="24px" font-style="normal" font-weight="normal" text-decoration="none" x="200" y="150"></text><text fill="#eeeeee" stroke="none" font-family="Arial" font-size="24px" font-style="normal" font-weight="normal" text-decoration="none" x="200" y="180"></text><text fill="#eeeeee" stroke="none" font-family="Arial" font-size="24px" font-style="normal" font-weight="normal" text-decoration="none" x="200" y="210"></text><text fill="#eeeeee" stroke="none" font-family="Arial" font-size="24px" font-style="normal" font-weight="normal" text-decoration="none" x="200" y="240"></text><text fill="#eeeeee" stroke="none" font-family="Arial" font-size="24px" font-style="normal" font-weight="normal" text-decoration="none" x="200" y="270"></text><text fill="#eeeeee" stroke="none" font-family="Arial" font-size="24px" font-style="normal" font-weight="normal" text-decoration="none" x="200" y="300"></text><text fill="#eeeeee" stroke="none" font-family="Arial" font-size="24px" font-style="normal" font-weight="normal" text-decoration="none" x="200" y="330"></text><text fill="#eeeeee" stroke="none" font-family="Arial" font-size="24px" font-style="normal" font-weight="normal" text-decoration="none" x="200" y="360"></text><text fill="#eeeeee" stroke="none" font-family="Arial" font-size="24px" font-style="normal" font-weight="normal" text-decoration="none" x="200" y="390"></text><text fill="#eeeeee" stroke="none" font-family="Arial" font-size="24px" font-style="normal" font-weight="normal" text-decoration="none" x="200" y="420"></text><text fill="#eeeeee" stroke="none" font-family="Arial" font-size="24px" font-style="normal" font-weight="normal" text-decoration="none" x="200" y="450"></text><text fill="#eeeeee" stroke="none" font-family="Arial" font-size="24px" font-style="normal" font-weight="normal" text-decoration="none" x="200" y="480"></text><text fill="#eeeeee" stroke="none" font-family="Arial" font-size="24px" font-style="normal" font-weight="normal" text-decoration="none" x="200" y="510"></text><text fill="#eeeeee" stroke="none" font-family="Arial" font-size="24px" font-style="normal" font-weight="normal" text-decoration="none" x="400" y="0"></text><text fill="#eeeeee" stroke="none" font-family="Arial" font-size="24px" font-style="normal" font-weight="normal" text-decoration="none" x="400" y="30"></text><text fill="#eeeeee" stroke="none" font-family="Arial" font-size="24px" font-style="normal" font-weight="normal" text-decoration="none" x="400" y="60"></text><text fill="#eeeeee" stroke="none" font-family="Arial" font-size="24px" font-style="normal" font-weight="normal" text-decoration="none" x="400" y="90"></text><text fill="#eeeeee" stroke="none" font-family="Arial" font-size="24px" font-style="normal" font-weight="normal" text-decoration="none" x="400" y="120"></text><text fill="#eeeeee" stroke="none" font-family="Arial" font-size="24px" font-style="normal" font-weight="normal" text-decoration="none" x="400" y="150"></text><text fill="#eeeeee" stroke="none" font-family="Arial" font-size="24px" font-style="normal" font-weight="normal" text-decoration="none" x="400" y="180"></text><text fill="#eeeeee" stroke="none" font-family="Arial" font-size="24px" font-style="normal" font-weight="normal" text-decoration="none" x="400" y="210"></text><text fill="#eeeeee" stroke="none" font-family="Arial" font-size="24px" font-style="normal" font-weight="normal" text-decoration="none" x="400" y="240"></text><text fill="#eeeeee" stroke="none" font-family="Arial" font-size="24px" font-style="normal" font-weight="normal" text-decoration="none" x="400" y="270"></text><text fill="#eeeeee" stroke="none" font-family="Arial" font-size="24px" font-style="normal" font-weight="normal" text-decoration="none" x="400" y="300"></text><text fill="#eeeeee" stroke="none" font-family="Arial" font-size="24px" font-style="normal" font-weight="normal" text-decoration="none" x="400" y="330"></text><text fill="#eeeeee" stroke="none" font-family="Arial" font-size="24px" font-style="normal" font-weight="normal" text-decoration="none" x="400" y="360"></text><text fill="#eeeeee" stroke="none" font-family="Arial" font-size="24px" font-style="normal" font-weight="normal" text-decoration="none" x="400" y="390"></text><text fill="#eeeeee" stroke="none" font-family="Arial" font-size="24px" font-style="normal" font-weight="normal" text-decoration="none" x="400" y="420"></text><text fill="#eeeeee" stroke="none" font-family="Arial" font-size="24px" font-style="normal" font-weight="normal" text-decoration="none" x="400" y="450"></text><text fill="#eeeeee" stroke="none" font-family="Arial" font-size="24px" font-style="normal" font-weight="normal" text-decoration="none" x="400" y="480"></text><text fill="#eeeeee" stroke="none" font-family="Arial" font-size="24px" font-style="normal" font-weight="normal" text-decoration="none" x="400" y="510"></text><g transform="translate(-70,-62) scale(1,1)"><path fill="none" stroke="#000000" d="M 80 72 L 648 72 L 648 576 L 80 576 L 80 72" stroke-miterlimit="10"/></g><g transform="translate(-70,-62) scale(1,1)"><path fill="#ffffff" stroke="none" d="M 80 72 L 80 94 L 134.3017578125 94 L 145.3017578125 83 L 145.3017578125 72 L 80 72"/></g><g transform="translate(-70,-62) scale(1,1)"><path fill="none" stroke="#000000" d="M 80 72 L 80 94 L 134.3017578125 94 L 145.3017578125 83 L 145.3017578125 72 L 80 72 L 80 72" stroke-miterlimit="10"/></g><g transform="translate(-70,-62) scale(1,1)"><g><path fill="none" stroke="none"/><text fill="#000000" stroke="none" font-family="Arial" font-size="13px" font-style="normal" font-weight="normal" text-decoration="none" x="104.72998046875" y="88">chat</text></g></g><g transform="translate(-70,-62) scale(1,1)"><g><path fill="none" stroke="none"/><text fill="#000000" stroke="none" font-family="Arial" font-size="13px" font-style="normal" font-weight="bold" text-decoration="none" x="84.279541015625" y="88">sd</text></g></g><g transform="translate(-70,-62) scale(1,1)"><path fill="none" stroke="#000000" d="M 328 208 L 576 208 L 576 288 L 328 288 L 328 208" stroke-miterlimit="10"/></g><g transform="translate(-70,-62) scale(1,1)"><path fill="#ffffff" stroke="none" d="M 328 208 L 328 230 L 368.578125 230 L 379.578125 219 L 379.578125 208 L 328 208"/></g><g transform="translate(-70,-62) scale(1,1)"><path fill="none" stroke="#000000" d="M 328 208 L 328 230 L 368.578125 230 L 379.578125 219 L 379.578125 208 L 328 208 L 328 208" stroke-miterlimit="10"/></g><g transform="translate(-70,-62) scale(1,1)"><g><path fill="none" stroke="none"/><text fill="#000000" stroke="none" font-family="Arial" font-size="13px" font-style="normal" font-weight="normal" text-decoration="none" x="339" y="224">loop</text></g></g><g transform="translate(-70,-62) scale(1,1)"><g><path fill="none" stroke="none"/><text fill="#000000" stroke="none" font-family="Arial" font-size="13px" font-style="normal" font-weight="bold" text-decoration="none" x="333" y="219"></text></g></g><g transform="translate(-70,-62) scale(1,1)"><path fill="#ffffff" stroke="none" d="M 544 144.5 C 544 139.8055792 547.5817216 136 552 136 C 556.4182784 136 560 139.8055792 560 144.5 C 560 149.1944208 556.4182784 153 552 153 C 547.5817216 153 544 149.1944208 544 144.5 Z"/></g><g transform="translate(-70,-62) scale(1,1)"><path fill="none" stroke="#000000" d="M 544 144.5 C 544 139.8055792 547.5817216 136 552 136 C 556.4182784 136 560 139.8055792 560 144.5 C 560 149.1944208 556.4182784 153 552 153 C 547.5817216 153 544 149.1944208 544 144.5 Z" stroke-miterlimit="10"/></g><g transform="translate(-70,-62) scale(1,1)"><path fill="none" stroke="#000000" d="M 552 152 L 552 168" stroke-miterlimit="10"/></g><g transform="translate(-70,-62) scale(1,1)"><path fill="none" stroke="#000000" d="M 560 160 L 544 160" stroke-miterlimit="10"/></g><g transform="translate(-70,-62) scale(1,1)"><path fill="none" stroke="#000000" d="M 544 176 L 552 168" stroke-miterlimit="10"/></g><g transform="translate(-70,-62) scale(1,1)"><path fill="none" stroke="#000000" d="M 560 176 L 552 168" stroke-miterlimit="10"/></g><g transform="translate(-70,-62) scale(1,1)"><g><path fill="none" stroke="none"/><text fill="#000000" stroke="none" font-family="Arial" font-size="13px" font-style="normal" font-weight="normal" text-decoration="none" x="533" y="191">Player</text></g></g><g transform="translate(-70,-62) scale(1,1)"><path fill="none" stroke="#4e73be" d="M 176 184 L 176 552" stroke-miterlimit="10" stroke-dasharray="6,4"/></g><g transform="translate(-70,-62) scale(1,1)"><rect fill="#7a9de5" stroke="none" x="128" y="144" width="96" height="38"/></g><g transform="translate(-70,-62) scale(1,1)"><path fill="none" stroke="#000000" d="M 128 144 L 224 144 L 224 182 L 128 182 L 128 144 Z Z" stroke-miterlimit="10"/></g><g transform="translate(-70,-62) scale(1,1)"><g><path fill="none" stroke="none"/><text fill="#ffffff" stroke="none" font-family="Arial" font-size="15px" font-style="normal" font-weight="normal" text-decoration="none" x="143.0703125" y="166">:Capitalist</text></g></g><g transform="translate(-70,-62) scale(1,1)"><rect fill="#4e73be" stroke="none" x="168" y="344" width="16" height="96"/></g><g transform="translate(-70,-62) scale(1,1)"><path fill="none" stroke="#000000" d="M 168 344 L 184 344 L 184 440 L 168 440 L 168 344 Z Z" stroke-miterlimit="10"/></g><g transform="translate(-70,-62) scale(1,1)"><path fill="none" stroke="#4e73be" d="M 552 192 L 552 552" stroke-miterlimit="10" stroke-dasharray="6,4"/></g><g transform="translate(-70,-62) scale(1,1)"><rect fill="#4e73be" stroke="none" x="544" y="240" width="16" height="32"/></g><g transform="translate(-70,-62) scale(1,1)"><path fill="none" stroke="#000000" d="M 544 240 L 560 240 L 560 272 L 544 272 L 544 240 Z Z" stroke-miterlimit="10"/></g><g transform="translate(-70,-62) scale(1,1)"><rect fill="#7a9de5" stroke="none" x="344" y="136" width="112" height="38"/></g><g transform="translate(-70,-62) scale(1,1)"><path fill="none" stroke="#000000" d="M 344 136 L 456 136 L 456 174 L 344 174 L 344 136 Z Z" stroke-miterlimit="10"/></g><g transform="translate(-70,-62) scale(1,1)"><g><path fill="none" stroke="none"/><text fill="#ffffff" stroke="none" font-family="Arial" font-size="15px" font-style="normal" font-weight="normal" text-decoration="none" x="352.47314453125" y="158">:ChatManager</text></g></g><g transform="translate(-70,-62) scale(1,1)"><rect fill="#4e73be" stroke="none" x="392" y="216" width="16" height="240"/></g><g transform="translate(-70,-62) scale(1,1)"><path fill="none" stroke="#000000" d="M 392 216 L 408 216 L 408 456 L 392 456 L 392 216 Z Z" stroke-miterlimit="10"/></g><g transform="translate(-70,-62) scale(1,1)"><path fill="none" stroke="#4e73be" d="M 400 176 L 400 552" stroke-miterlimit="10" stroke-dasharray="6,4"/></g><g transform="translate(-70,-62) scale(1,1)"><path fill="none" stroke="#000000" d="M 408 256 L 544 256" stroke-miterlimit="10"/></g><g transform="translate(-70,-62) scale(1,1)"><path fill="#000000" stroke="none" d="M 418.16267485762415 251.790482243984 L 408 256 L 418.16267485762415 260.209517756016"/></g><g transform="translate(-70,-62) scale(1,1)"><path fill="none" stroke="#000000" d="M 418.16267485762415 251.790482243984 L 408 256 L 418.16267485762415 260.209517756016 L 418.16267485762415 251.790482243984" stroke-miterlimit="10"/></g><g transform="translate(-70,-62) scale(1,1)"><path fill="none" stroke="#000000" d="M 392 360 L 184 360" stroke-miterlimit="10"/></g><g transform="translate(-70,-62) scale(1,1)"><path fill="#000000" stroke="none" d="M 194.16267485762415 355.790482243984 L 184 360 L 194.16267485762415 364.209517756016"/></g><g transform="translate(-70,-62) scale(1,1)"><path fill="none" stroke="#000000" d="M 194.16267485762415 355.790482243984 L 184 360 L 194.16267485762415 364.209517756016 L 194.16267485762415 355.790482243984" stroke-miterlimit="10"/></g><g transform="translate(-70,-62) scale(1,1)"><g><path fill="none" stroke="none"/><text fill="#000000" stroke="none" font-family="Arial" font-size="13px" font-style="normal" font-weight="normal" text-decoration="none" x="221" y="351">notifyNewMessage()</text></g></g><g transform="translate(-70,-62) scale(1,1)"><path fill="none" stroke="#000000" d="M 184 392 L 392 394" stroke-miterlimit="10"/></g><g transform="translate(-70,-62) scale(1,1)"><path fill="#000000" stroke="none" d="M 381.79732064673465 398.111609662219 L 392 394 L 381.8782691692869 389.69296331678123"/></g><g transform="translate(-70,-62) scale(1,1)"><path fill="none" stroke="#000000" d="M 381.79732064673465 398.111609662219 L 392 394 L 381.8782691692869 389.69296331678123 L 381.79732064673465 398.111609662219" stroke-miterlimit="10"/></g><g transform="translate(-70,-62) scale(1,1)"><g><path fill="none" stroke="none"/><text fill="#000000" stroke="none" font-family="Arial" font-size="13px" font-style="normal" font-weight="normal" text-decoration="none" x="221" y="383">getNewMessage()</text></g></g><g transform="translate(-70,-62) scale(1,1)"><path fill="none" stroke="#000000" d="M 392 424 L 184 424" stroke-miterlimit="10" stroke-dasharray="6,4"/></g><g transform="translate(-70,-62) scale(1,1)"><path fill="none" stroke="#000000" d="M 194.16267485762415 419.790482243984 L 184 424 L 194.16267485762415 428.209517756016" stroke-miterlimit="10"/></g><g transform="translate(-70,-62) scale(1,1)"><g><path fill="none" stroke="none"/><text fill="#000000" stroke="none" font-family="Arial" font-size="13px" font-style="normal" font-weight="normal" text-decoration="none" x="221" y="412">new_message</text></g></g><g transform="translate(-70,-62) scale(1,1)"><g><path fill="none" stroke="none"/><text fill="#000000" stroke="none" font-family="Arial" font-size="13px" font-style="normal" font-weight="normal" text-decoration="none" x="437" y="247">newMessage()</text></g></g><g transform="translate(-70,-62) scale(1,1)"><path fill="none" stroke="#000000" d="M 408 296 L 440 296 L 440 336 L 408 336" stroke-miterlimit="10"/></g><g transform="translate(-70,-62) scale(1,1)"><path fill="#000000" stroke="none" d="M 418.16267485762415 331.790482243984 L 408 336 L 418.16267485762415 340.209517756016"/></g><g transform="translate(-70,-62) scale(1,1)"><path fill="none" stroke="#000000" d="M 418.16267485762415 331.790482243984 L 408 336 L 418.16267485762415 340.209517756016 L 418.16267485762415 331.790482243984" stroke-miterlimit="10"/></g><g transform="translate(-70,-62) scale(1,1)"><g><path fill="none" stroke="none"/><text fill="#000000" stroke="none" font-family="Arial" font-size="13px" font-style="normal" font-weight="normal" text-decoration="none" x="445" y="319">verifyMessage()</text></g></g></g></svg>