<svg version="1.1" xmlns="http://www.w3.org/2000/svg" xmlns:xlink="http://www.w3.org/1999/xlink" width="812" height="724"><defs/><g><text fill="#eeeeee" stroke="none" font-family="Arial" font-size="24px" font-style="normal" font-weight="normal" text-decoration="none" x="0" y="0"></text><text fill="#eeeeee" stroke="none" font-family="Arial" font-size="24px" font-style="normal" font-weight="normal" text-decoration="none" x="0" y="30"></text><text fill="#eeeeee" stroke="none" font-family="Arial" font-size="24px" font-style="normal" font-weight="normal" text-decoration="none" x="0" y="60"></text><text fill="#eeeeee" stroke="none" font-family="Arial" font-size="24px" font-style="normal" font-weight="normal" text-decoration="none" x="0" y="90"></text><text fill="#eeeeee" stroke="none" font-family="Arial" font-size="24px" font-style="normal" font-weight="normal" text-decoration="none" x="0" y="120"></text><text fill="#eeeeee" stroke="none" font-family="Arial" font-size="24px" font-style="normal" font-weight="normal" text-decoration="none" x="0" y="150"></text><text fill="#eeeeee" stroke="none" font-family="Arial" font-size="24px" font-style="normal" font-weight="normal" text-decoration="none" x="0" y="180"></text><text fill="#eeeeee" stroke="none" font-family="Arial" font-size="24px" font-style="normal" font-weight="normal" text-decoration="none" x="0" y="210"></text><text fill="#eeeeee" stroke="none" font-family="Arial" font-size="24px" font-style="normal" font-weight="normal" text-decoration="none" x="0" y="240"></text><text fill="#eeeeee" stroke="none" font-family="Arial" font-size="24px" font-style="normal" font-weight="normal" text-decoration="none" x="0" y="270"></text><text fill="#eeeeee" stroke="none" font-family="Arial" font-size="24px" font-style="normal" font-weight="normal" text-decoration="none" x="0" y="300"></text><text fill="#eeeeee" stroke="none" font-family="Arial" font-size="24px" font-style="normal" font-weight="normal" text-decoration="none" x="0" y="330"></text><text fill="#eeeeee" stroke="none" font-family="Arial" font-size="24px" font-style="normal" font-weight="normal" text-decoration="none" x="0" y="360"></text><text fill="#eeeeee" stroke="none" font-family="Arial" font-size="24px" font-style="normal" font-weight="normal" text-decoration="none" x="0" y="390"></text><text fill="#eeeeee" stroke="none" font-family="Arial" font-size="24px" font-style="normal" font-weight="normal" text-decoration="none" x="0" y="420"></text><text fill="#eeeeee" stroke="none" font-family="Arial" font-size="24px" font-style="normal" font-weight="normal" text-decoration="none" x="0" y="450"></text><text fill="#eeeeee" stroke="none" font-family="Arial" font-size="24px" font-style="normal" font-weight="normal" text-decoration="none" x="0" y="480"></text><text fill="#eeeeee" stroke="none" font-family="Arial" font-size="24px" font-style="normal" font-weight="normal" text-decoration="none" x="0" y="510"></text><text fill="#eeeeee" stroke="none" font-family="Arial" font-size="24px" font-style="normal" font-weight="normal" text-decoration="none" x="0" y="540"></text><text fill="#eeeeee" stroke="none" font-family="Arial" font-size="24px" font-style="normal" font-weight="normal" text-decoration="none" x="0" y="570"></text><text fill="#eeeeee" stroke="none" font-family="Arial" font-size="24px" font-style="normal" font-weight="normal" text-decoration="none" x="0" y="600"></text><text fill="#eeeeee" stroke="none" font-family="Arial" font-size="24px" font-style="normal" font-weight="normal" text-decoration="none" x="0" y="630"></text><text fill="#eeeeee" stroke="none" font-family="Arial" font-size="24px" font-style="normal" font-weight="normal" text-decoration="none" x="0" y="660"></text><text fill="#eeeeee" stroke="none" font-family="Arial" font-size="24px" font-style="normal" font-weight="normal" text-decoration="none" x="0" y="690"></text><text fill="#eeeeee" stroke="none" font-family="Arial" font-size="24px" font-style="normal" font-weight="normal" text-decoration="none" x="0" y="720"></text><text fill="#eeeeee" stroke="none" font-family="Arial" font-size="24px" font-style="normal" font-weight="normal" text-decoration="none" x="200" y="0"></text><text fill="#eeeeee" stroke="none" font-family="Arial" font-size="24px" font-style="normal" font-weight="normal" text-decoration="none" x="200" y="30"></text><text fill="#eeeeee" stroke="none" font-family="Arial" font-size="24px" font-style="normal" font-weight="normal" text-decoration="none" x="200" y="60"></text><text fill="#eeeeee" stroke="none" font-family="Arial" font-size="24px" font-style="normal" font-weight="normal" text-decoration="none" x="200" y="90"></text><text fill="#eeeeee" stroke="none" font-family="Arial" font-size="24px" font-style="normal" font-weight="normal" text-decoration="none" x="200" y="120"></text><text fill="#eeeeee" stroke="none" font-family="Arial" font-size="24px" font-style="normal" font-weight="normal" text-decoration="none" x="200" y="150"></text><text fill="#eeeeee" stroke="none" font-family="Arial" font-size="24px" font-style="normal" font-weight="normal" text-decoration="none" x="200" y="180"></text><text fill="#eeeeee" stroke="none" font-family="Arial" font-size="24px" font-style="normal" font-weight="normal" text-decoration="none" x="200" y="210"></text><text fill="#eeeeee" stroke="none" font-family="Arial" font-size="24px" font-style="normal" font-weight="normal" text-decoration="none" x="200" y="240"></text><text fill="#eeeeee" stroke="none" font-family="Arial" font-size="24px" font-style="normal" font-weight="normal" text-decoration="none" x="200" y="270"></text><text fill="#eeeeee" stroke="none" font-family="Arial" font-size="24px" font-style="normal" font-weight="normal" text-decoration="none" x="200" y="300"></text><text fill="#eeeeee" stroke="none" font-family="Arial" font-size="24px" font-style="normal" font-weight="normal" text-decoration="none" x="200" y="330"></text><text fill="#eeeeee" stroke="none" font-family="Arial" font-size="24px" font-style="normal" font-weight="normal" text-decoration="none" x="200" y="360"></text><text fill="#eeeeee" stroke="none" font-family="Arial" font-size="24px" font-style="normal" font-weight="normal" text-decoration="none" x="200" y="390"></text><text fill="#eeeeee" stroke="none" font-family="Arial" font-size="24px" font-style="normal" font-weight="normal" text-decoration="none" x="200" y="420"></text><text fill="#eeeeee" stroke="none" font-family="Arial" font-size="24px" font-style="normal" font-weight="normal" text-decoration="none" x="200" y="450"></text><text fill="#eeeeee" stroke="none" font-family="Arial" font-size="24px" font-style="normal" font-weight="normal" text-decoration="none" x="200" y="480"></text><text fill="#eeeeee" stroke="none" font-family="Arial" font-size="24px" font-style="normal" font-weight="normal" text-decoration="none" x="200" y="510"></text><text fill="#eeeeee" stroke="none" font-family="Arial" font-size="24px" font-style="normal" font-weight="normal" text-decoration="none" x="200" y="540"></text><text fill="#eeeeee" stroke="none" font-family="Arial" font-size="24px" font-style="normal" font-weight="normal" text-decoration="none" x="200" y="570"></text><text fill="#eeeeee" stroke="none" font-family="Arial" font-size="24px" font-style="normal" font-weight="normal" text-decoration="none" x="200" y="600"></text><text fill="#eeeeee" stroke="none" font-family="Arial" font-size="24px" font-style="normal" font-weight="normal" text-decoration="none" x="200" y="630"></text><text fill="#eeeeee" stroke="none" font-family="Arial" font-size="24px" font-style="normal" font-weight="normal" text-decoration="none" x="200" y="660"></text><text fill="#eeeeee" stroke="none" font-family="Arial" font-size="24px" font-style="normal" font-weight="normal" text-decoration="none" x="200" y="690"></text><text fill="#eeeeee" stroke="none" font-family="Arial" font-size="24px" font-style="normal" font-weight="normal" text-decoration="none" x="200" y="720"></text><text fill="#eeeeee" stroke="none" font-family="Arial" font-size="24px" font-style="normal" font-weight="normal" text-decoration="none" x="400" y="0"></text><text fill="#eeeeee" stroke="none" font-family="Arial" font-size="24px" font-style="normal" font-weight="normal" text-decoration="none" x="400" y="30"></text><text fill="#eeeeee" stroke="none" font-family="Arial" font-size="24px" font-style="normal" font-weight="normal" text-decoration="none" x="400" y="60"></text><text fill="#eeeeee" stroke="none" font-family="Arial" font-size="24px" font-style="normal" font-weight="normal" text-decoration="none" x="400" y="90"></text><text fill="#eeeeee" stroke="none" font-family="Arial" font-size="24px" font-style="normal" font-weight="normal" text-decoration="none" x="400" y="120"></text><text fill="#eeeeee" stroke="none" font-family="Arial" font-size="24px" font-style="normal" font-weight="normal" text-decoration="none" x="400" y="150"></text><text fill="#eeeeee" stroke="none" font-family="Arial" font-size="24px" font-style="normal" font-weight="normal" text-decoration="none" x="400" y="180"></text><text fill="#eeeeee" stroke="none" font-family="Arial" font-size="24px" font-style="normal" font-weight="normal" text-decoration="none" x="400" y="210"></text><text fill="#eeeeee" stroke="none" font-family="Arial" font-size="24px" font-style="normal" font-weight="normal" text-decoration="none" x="400" y="240"></text><text fill="#eeeeee" stroke="none" font-family="Arial" font-size="24px" font-style="normal" font-weight="normal" text-decoration="none" x="400" y="270"></text><text fill="#eeeeee" stroke="none" font-family="Arial" font-size="24px" font-style="normal" font-weight="normal" text-decoration="none" x="400" y="300"></text><text fill="#eeeeee" stroke="none" font-family="Arial" font-size="24px" font-style="normal" font-weight="normal" text-decoration="none" x="400" y="330"></text><text fill="#eeeeee" stroke="none" font-family="Arial" font-size="24px" font-style="normal" font-weight="normal" text-decoration="none" x="400" y="360"></text><text fill="#eeeeee" stroke="none" font-family="Arial" font-size="24px" font-style="normal" font-weight="normal" text-decoration="none" x="400" y="390"></text><text fill="#eeeeee" stroke="none" font-family="Arial" font-size="24px" font-style="normal" font-weight="normal" text-decoration="none" x="400" y="420"></text><text fill="#eeeeee" stroke="none" font-family="Arial" font-size="24px" font-style="normal" font-weight="normal" text-decoration="none" x="400" y="450"></text><text fill="#eeeeee" stroke="none" font-family="Arial" font-size="24px" font-style="normal" font-weight="normal" text-decoration="none" x="400" y="480"></text><text fill="#eeeeee" stroke="none" font-family="Arial" font-size="24px" font-style="normal" font-weight="normal" text-decoration="none" x="400" y="510"></text><text fill="#eeeeee" stroke="none" font-family="Arial" font-size="24px" font-style="normal" font-weight="normal" text-decoration="none" x="400" y="540"></text><text fill="#eeeeee" stroke="none" font-family="Arial" font-size="24px" font-style="normal" font-weight="normal" text-decoration="none" x="400" y="570"></text><text fill="#eeeeee" stroke="none" font-family="Arial" font-size="24px" font-style="normal" font-weight="normal" text-decoration="none" x="400" y="600"></text><text fill="#eeeeee" stroke="none" font-family="Arial" font-size="24px" font-style="normal" font-weight="normal" text-decoration="none" x="400" y="630"></text><text fill="#eeeeee" stroke="none" font-family="Arial" font-size="24px" font-style="normal" font-weight="normal" text-decoration="none" x="400" y="660"></text><text fill="#eeeeee" stroke="none" font-family="Arial" font-size="24px" font-style="normal" font-weight="normal" text-decoration="none" x="400" y="690"></text><text fill="#eeeeee" stroke="none" font-family="Arial" font-size="24px" font-style="normal" font-weight="normal" text-decoration="none" x="400" y="720"></text><text fill="#eeeeee" stroke="none" font-family="Arial" font-size="24px" font-style="normal" font-weight="normal" text-decoration="none" x="600" y="0"></text><text fill="#eeeeee" stroke="none" font-family="Arial" font-size="24px" font-style="normal" font-weight="normal" text-decoration="none" x="600" y="30"></text><text fill="#eeeeee" stroke="none" font-family="Arial" font-size="24px" font-style="normal" font-weight="normal" text-decoration="none" x="600" y="60"></text><text fill="#eeeeee" stroke="none" font-family="Arial" font-size="24px" font-style="normal" font-weight="normal" text-decoration="none" x="600" y="90"></text><text fill="#eeeeee" stroke="none" font-family="Arial" font-size="24px" font-style="normal" font-weight="normal" text-decoration="none" x="600" y="120"></text><text fill="#eeeeee" stroke="none" font-family="Arial" font-size="24px" font-style="normal" font-weight="normal" text-decoration="none" x="600" y="150"></text><text fill="#eeeeee" stroke="none" font-family="Arial" font-size="24px" font-style="normal" font-weight="normal" text-decoration="none" x="600" y="180"></text><text fill="#eeeeee" stroke="none" font-family="Arial" font-size="24px" font-style="normal" font-weight="normal" text-decoration="none" x="600" y="210"></text><text fill="#eeeeee" stroke="none" font-family="Arial" font-size="24px" font-style="normal" font-weight="normal" text-decoration="none" x="600" y="240"></text><text fill="#eeeeee" stroke="none" font-family="Arial" font-size="24px" font-style="normal" font-weight="normal" text-decoration="none" x="600" y="270"></text><text fill="#eeeeee" stroke="none" font-family="Arial" font-size="24px" font-style="normal" font-weight="normal" text-decoration="none" x="600" y="300"></text><text fill="#eeeeee" stroke="none" font-family="Arial" font-size="24px" font-style="normal" font-weight="normal" text-decoration="none" x="600" y="330"></text><text fill="#eeeeee" stroke="none" font-family="Arial" font-size="24px" font-style="normal" font-weight="normal" text-decoration="none" x="600" y="360"></text><text fill="#eeeeee" stroke="none" font-family="Arial" font-size="24px" font-style="normal" font-weight="normal" text-decoration="none" x="600" y="390"></text><text fill="#eeeeee" stroke="none" font-family="Arial" font-size="24px" font-style="normal" font-weight="normal" text-decoration="none" x="600" y="420"></text><text fill="#eeeeee" stroke="none" font-family="Arial" font-size="24px" font-style="normal" font-weight="normal" text-decoration="none" x="600" y="450"></text><text fill="#eeeeee" stroke="none" font-family="Arial" font-size="24px" font-style="normal" font-weight="normal" text-decoration="none" x="600" y="480"></text><text fill="#eeeeee" stroke="none" font-family="Arial" font-size="24px" font-style="normal" font-weight="normal" text-decoration="none" x="600" y="510"></text><text fill="#eeeeee" stroke="none" font-family="Arial" font-size="24px" font-style="normal" font-weight="normal" text-decoration="none" x="600" y="540"></text><text fill="#eeeeee" stroke="none" font-family="Arial" font-size="24px" font-style="normal" font-weight="normal" text-decoration="none" x="600" y="570"></text><text fill="#eeeeee" stroke="none" font-family="Arial" font-size="24px" font-style="normal" font-weight="normal" text-decoration="none" x="600" y="600"></text><text fill="#eeeeee" stroke="none" font-family="Arial" font-size="24px" font-style="normal" font-weight="normal" text-decoration="none" x="600" y="630"></text><text fill="#eeeeee" stroke="none" font-family="Arial" font-size="24px" font-style="normal" font-weight="normal" text-decoration="none" x="600" y="660"></text><text fill="#eeeeee" stroke="none" font-family="Arial" font-size="24px" font-style="normal" font-weight="normal" text-decoration="none" x="600" y="690"></text><text fill="#eeeeee" stroke="none" font-family="Arial" font-size="24px" font-style="normal" font-weight="normal" text-decoration="none" x="600" y="720"></text><text fill="#eeeeee" stroke="none" font-family="Arial" font-size="24px" font-style="normal" font-weight="normal" text-decoration="none" x="800" y="0"></text><text fill="#eeeeee" stroke="none" font-family="Arial" font-size="24px" font-style="normal" font-weight="normal" text-decoration="none" x="800" y="30"></text><text fill="#eeeeee" stroke="none" font-family="Arial" font-size="24px" font-style="normal" font-weight="normal" text-decoration="none" x="800" y="60"></text><text fill="#eeeeee" stroke="none" font-family="Arial" font-size="24px" font-style="normal" font-weight="normal" text-decoration="none" x="800" y="90"></text><text fill="#eeeeee" stroke="none" font-family="Arial" font-size="24px" font-style="normal" font-weight="normal" text-decoration="none" x="800" y="120"></text><text fill="#eeeeee" stroke="none" font-family="Arial" font-size="24px" font-style="normal" font-weight="normal" text-decoration="none" x="800" y="150"></text><text fill="#eeeeee" stroke="none" font-family="Arial" font-size="24px" font-style="normal" font-weight="normal" text-decoration="none" x="800" y="180"></text><text fill="#eeeeee" stroke="none" font-family="Arial" font-size="24px" font-style="normal" font-weight="normal" text-decoration="none" x="800" y="210"></text><text fill="#eeeeee" stroke="none" font-family="Arial" font-size="24px" font-style="normal" font-weight="normal" text-decoration="none" x="800" y="240"></text><text fill="#eeeeee" stroke="none" font-family="Arial" font-size="24px" font-style="normal" font-weight="normal" text-decoration="none" x="800" y="270"></text><text fill="#eeeeee" stroke="none" font-family="Arial" font-size="24px" font-style="normal" font-weight="normal" text-decoration="none" x="800" y="300"></text><text fill="#eeeeee" stroke="none" font-family="Arial" font-size="24px" font-style="normal" font-weight="normal" text-decoration="none" x="800" y="330"></text><text fill="#eeeeee" stroke="none" font-family="Arial" font-size="24px" font-style="normal" font-weight="normal" text-decoration="none" x="800" y="360"></text><text fill="#eeeeee" stroke="none" font-family="Arial" font-size="24px" font-style="normal" font-weight="normal" text-decoration="none" x="800" y="390"></text><text fill="#eeeeee" stroke="none" font-family="Arial" font-size="24px" font-style="normal" font-weight="normal" text-decoration="none" x="800" y="420"></text><text fill="#eeeeee" stroke="none" font-family="Arial" font-size="24px" font-style="normal" font-weight="normal" text-decoration="none" x="800" y="450"></text><text fill="#eeeeee" stroke="none" font-family="Arial" font-size="24px" font-style="normal" font-weight="normal" text-decoration="none" x="800" y="480"></text><text fill="#eeeeee" stroke="none" font-family="Arial" font-size="24px" font-style="normal" font-weight="normal" text-decoration="none" x="800" y="510"></text><text fill="#eeeeee" stroke="none" font-family="Arial" font-size="24px" font-style="normal" font-weight="normal" text-decoration="none" x="800" y="540"></text><text fill="#eeeeee" stroke="none" font-family="Arial" font-size="24px" font-style="normal" font-weight="normal" text-decoration="none" x="800" y="570"></text><text fill="#eeeeee" stroke="none" font-family="Arial" font-size="24px" font-style="normal" font-weight="normal" text-decoration="none" x="800" y="600"></text><text fill="#eeeeee" stroke="none" font-family="Arial" font-size="24px" font-style="normal" font-weight="normal" text-decoration="none" x="800" y="630"></text><text fill="#eeeeee" stroke="none" font-family="Arial" font-size="24px" font-style="normal" font-weight="normal" text-decoration="none" x="800" y="660"></text><text fill="#eeeeee" stroke="none" font-family="Arial" font-size="24px" font-style="normal" font-weight="normal" text-decoration="none" x="800" y="690"></text><text fill="#eeeeee" stroke="none" font-family="Arial" font-size="24px" font-style="normal" font-weight="normal" text-decoration="none" x="800" y="720"></text><g transform="translate(-94,-78) scale(1,1)"><path fill="none" stroke="#000000" d="M 104 88 L 896 88 L 896 792 L 104 792 L 104 88" stroke-miterlimit="10"/></g><g transform="translate(-94,-78) scale(1,1)"><path fill="#ffffff" stroke="none" d="M 104 88 L 104 110 L 157.578125 110 L 168.578125 99 L 168.578125 88 L 104 88"/></g><g transform="translate(-94,-78) scale(1,1)"><path fill="none" stroke="#000000" d="M 104 88 L 104 110 L 157.578125 110 L 168.578125 99 L 168.578125 88 L 104 88 L 104 88" stroke-miterlimit="10"/></g><g transform="translate(-94,-78) scale(1,1)"><g><path fill="none" stroke="none"/><text fill="#000000" stroke="none" font-family="Arial" font-size="13px" font-style="normal" font-weight="normal" text-decoration="none" x="128.72998046875" y="104">dice</text></g></g><g transform="translate(-94,-78) scale(1,1)"><g><path fill="none" stroke="none"/><text fill="#000000" stroke="none" font-family="Arial" font-size="13px" font-style="normal" font-weight="bold" text-decoration="none" x="108.279541015625" y="104">sd</text></g></g><g transform="translate(-94,-78) scale(1,1)"><path fill="none" stroke="#000000" d="M 144 536 L 792 536 L 792 656 L 144 656 L 144 536" stroke-miterlimit="10"/></g><g transform="translate(-94,-78) scale(1,1)"><path fill="#ffffff" stroke="none" d="M 144 536 L 144 558 L 217.80810546875 558 L 228.80810546875 547 L 228.80810546875 536 L 144 536"/></g><g transform="translate(-94,-78) scale(1,1)"><path fill="none" stroke="#000000" d="M 144 536 L 144 558 L 217.80810546875 558 L 228.80810546875 547 L 228.80810546875 536 L 144 536 L 144 536" stroke-miterlimit="10"/></g><g transform="translate(-94,-78) scale(1,1)"><g><path fill="none" stroke="none"/><text fill="#000000" stroke="none" font-family="Arial" font-size="13px" font-style="normal" font-weight="normal" text-decoration="none" x="155" y="552">loop (30s)</text></g></g><g transform="translate(-94,-78) scale(1,1)"><g><path fill="none" stroke="none"/><text fill="#000000" stroke="none" font-family="Arial" font-size="13px" font-style="normal" font-weight="bold" text-decoration="none" x="149" y="547"></text></g></g><g transform="translate(-94,-78) scale(1,1)"><path fill="#ffffff" stroke="none" d="M 512 128.5 C 512 123.8055792 515.5817216 120 520 120 C 524.4182784 120 528 123.8055792 528 128.5 C 528 133.1944208 524.4182784 137 520 137 C 515.5817216 137 512 133.1944208 512 128.5 Z"/></g><g transform="translate(-94,-78) scale(1,1)"><path fill="none" stroke="#000000" d="M 512 128.5 C 512 123.8055792 515.5817216 120 520 120 C 524.4182784 120 528 123.8055792 528 128.5 C 528 133.1944208 524.4182784 137 520 137 C 515.5817216 137 512 133.1944208 512 128.5 Z" stroke-miterlimit="10"/></g><g transform="translate(-94,-78) scale(1,1)"><path fill="none" stroke="#000000" d="M 520 136 L 520 152" stroke-miterlimit="10"/></g><g transform="translate(-94,-78) scale(1,1)"><path fill="none" stroke="#000000" d="M 528 144 L 512 144" stroke-miterlimit="10"/></g><g transform="translate(-94,-78) scale(1,1)"><path fill="none" stroke="#000000" d="M 512 160 L 520 152" stroke-miterlimit="10"/></g><g transform="translate(-94,-78) scale(1,1)"><path fill="none" stroke="#000000" d="M 528 160 L 520 152" stroke-miterlimit="10"/></g><g transform="translate(-94,-78) scale(1,1)"><g><path fill="none" stroke="none"/><text fill="#000000" stroke="none" font-family="Arial" font-size="13px" font-style="normal" font-weight="normal" text-decoration="none" x="501" y="175">Player</text></g></g><g transform="translate(-94,-78) scale(1,1)"><path fill="none" stroke="#4e73be" d="M 288 176 L 288 768" stroke-miterlimit="10" stroke-dasharray="6,4"/></g><g transform="translate(-94,-78) scale(1,1)"><rect fill="#7a9de5" stroke="none" x="240" y="136" width="96" height="38"/></g><g transform="translate(-94,-78) scale(1,1)"><path fill="none" stroke="#000000" d="M 240 136 L 336 136 L 336 174 L 240 174 L 240 136 Z Z" stroke-miterlimit="10"/></g><g transform="translate(-94,-78) scale(1,1)"><g><path fill="none" stroke="none"/><text fill="#ffffff" stroke="none" font-family="Arial" font-size="15px" font-style="normal" font-weight="normal" text-decoration="none" x="255.0703125" y="158">:Capitalist</text></g></g><g transform="translate(-94,-78) scale(1,1)"><rect fill="#4e73be" stroke="none" x="280" y="192" width="16" height="552"/></g><g transform="translate(-94,-78) scale(1,1)"><path fill="none" stroke="#000000" d="M 280 192 L 296 192 L 296 744 L 280 744 L 280 192 Z Z" stroke-miterlimit="10"/></g><g transform="translate(-94,-78) scale(1,1)"><path fill="#ffffff" stroke="none" d="M 728 128.5 C 728 123.8055792 731.5817216 120 736 120 C 740.4182784 120 744 123.8055792 744 128.5 C 744 133.1944208 740.4182784 137 736 137 C 731.5817216 137 728 133.1944208 728 128.5 Z"/></g><g transform="translate(-94,-78) scale(1,1)"><path fill="none" stroke="#000000" d="M 728 128.5 C 728 123.8055792 731.5817216 120 736 120 C 740.4182784 120 744 123.8055792 744 128.5 C 744 133.1944208 740.4182784 137 736 137 C 731.5817216 137 728 133.1944208 728 128.5 Z" stroke-miterlimit="10"/></g><g transform="translate(-94,-78) scale(1,1)"><path fill="none" stroke="#000000" d="M 736 136 L 736 152" stroke-miterlimit="10"/></g><g transform="translate(-94,-78) scale(1,1)"><path fill="none" stroke="#000000" d="M 736 152 L 728 160" stroke-miterlimit="10"/></g><g transform="translate(-94,-78) scale(1,1)"><path fill="none" stroke="#000000" d="M 736 152 L 744 160" stroke-miterlimit="10"/></g><g transform="translate(-94,-78) scale(1,1)"><path fill="none" stroke="#000000" d="M 744 144 L 728 144" stroke-miterlimit="10"/></g><g transform="translate(-94,-78) scale(1,1)"><g><path fill="none" stroke="none"/><text fill="#000000" stroke="none" font-family="Arial" font-size="13px" font-style="normal" font-weight="normal" text-decoration="none" x="701" y="175">Opponents</text></g></g><g transform="translate(-94,-78) scale(1,1)"><rect fill="#4e73be" stroke="none" x="512" y="208" width="16" height="48"/></g><g transform="translate(-94,-78) scale(1,1)"><path fill="none" stroke="#000000" d="M 512 208 L 528 208 L 528 256 L 512 256 L 512 208 Z Z" stroke-miterlimit="10"/></g><g transform="translate(-94,-78) scale(1,1)"><path fill="none" stroke="#4e73be" d="M 520 184 L 520 480" stroke-miterlimit="10" stroke-dasharray="6,4"/></g><g transform="translate(-94,-78) scale(1,1)"><path fill="none" stroke="#000000" d="M 512 216 L 296 216" stroke-miterlimit="10"/></g><g transform="translate(-94,-78) scale(1,1)"><path fill="#000000" stroke="none" d="M 501.83732514237585 220.209517756016 L 512 216 L 501.83732514237585 211.790482243984"/></g><g transform="translate(-94,-78) scale(1,1)"><path fill="none" stroke="#000000" d="M 501.83732514237585 220.209517756016 L 512 216 L 501.83732514237585 211.790482243984 L 501.83732514237585 220.209517756016" stroke-miterlimit="10"/></g><g transform="translate(-94,-78) scale(1,1)"><g><path fill="none" stroke="none"/><text fill="#000000" stroke="none" font-family="Arial" font-size="13px" font-style="normal" font-weight="normal" text-decoration="none" x="357" y="207">launchDice()</text></g></g><g transform="translate(-94,-78) scale(1,1)"><path fill="none" stroke="#000000" d="M 512 248 L 296 248" stroke-miterlimit="10" stroke-dasharray="6,4"/></g><g transform="translate(-94,-78) scale(1,1)"><path fill="none" stroke="#000000" d="M 306.16267485762415 243.790482243984 L 296 248 L 306.16267485762415 252.209517756016" stroke-miterlimit="10"/></g><g transform="translate(-94,-78) scale(1,1)"><g><path fill="none" stroke="none"/><text fill="#000000" stroke="none" font-family="Arial" font-size="13px" font-style="normal" font-weight="normal" text-decoration="none" x="373" y="239">value</text></g></g><g transform="translate(-94,-78) scale(1,1)"><path fill="none" stroke="#000000" d="M 296 280 L 328 280 L 328 320 L 296 320" stroke-miterlimit="10"/></g><g transform="translate(-94,-78) scale(1,1)"><path fill="#000000" stroke="none" d="M 306.16267485762415 315.790482243984 L 296 320 L 306.16267485762415 324.209517756016"/></g><g transform="translate(-94,-78) scale(1,1)"><path fill="none" stroke="#000000" d="M 306.16267485762415 315.790482243984 L 296 320 L 306.16267485762415 324.209517756016 L 306.16267485762415 315.790482243984" stroke-miterlimit="10"/></g><g transform="translate(-94,-78) scale(1,1)"><g><path fill="none" stroke="none"/><text fill="#000000" stroke="none" font-family="Arial" font-size="13px" font-style="normal" font-weight="normal" text-decoration="none" x="333" y="303">movePlayer()</text></g></g><g transform="translate(-94,-78) scale(1,1)"><path fill="none" stroke="#000000" d="M 296 368 L 512 368" stroke-miterlimit="10"/></g><g transform="translate(-94,-78) scale(1,1)"><path fill="#000000" stroke="none" d="M 501.83732514237585 372.209517756016 L 512 368 L 501.83732514237585 363.790482243984"/></g><g transform="translate(-94,-78) scale(1,1)"><path fill="none" stroke="#000000" d="M 501.83732514237585 372.209517756016 L 512 368 L 501.83732514237585 363.790482243984 L 501.83732514237585 372.209517756016" stroke-miterlimit="10"/></g><g transform="translate(-94,-78) scale(1,1)"><rect fill="#4e73be" stroke="none" x="512" y="360" width="16" height="48"/></g><g transform="translate(-94,-78) scale(1,1)"><path fill="none" stroke="#000000" d="M 512 360 L 528 360 L 528 408 L 512 408 L 512 360 Z Z" stroke-miterlimit="10"/></g><g transform="translate(-94,-78) scale(1,1)"><g><path fill="none" stroke="none"/><text fill="#000000" stroke="none" font-family="Arial" font-size="13px" font-style="normal" font-weight="normal" text-decoration="none" x="357" y="359">cellAction()</text></g></g><g transform="translate(-94,-78) scale(1,1)"><path fill="none" stroke="#000000" d="M 512 400 L 296 400" stroke-miterlimit="10" stroke-dasharray="6,4"/></g><g transform="translate(-94,-78) scale(1,1)"><path fill="none" stroke="#000000" d="M 306.16267485762415 395.790482243984 L 296 400 L 306.16267485762415 404.209517756016" stroke-miterlimit="10"/></g><g transform="translate(-94,-78) scale(1,1)"><g><path fill="none" stroke="none"/><text fill="#000000" stroke="none" font-family="Arial" font-size="13px" font-style="normal" font-weight="normal" text-decoration="none" x="365" y="391">action</text></g></g><g transform="translate(-94,-78) scale(1,1)"><path fill="none" stroke="#000000" d="M 296 456 L 328 456 L 328 496 L 296 496" stroke-miterlimit="10"/></g><g transform="translate(-94,-78) scale(1,1)"><path fill="#000000" stroke="none" d="M 306.16267485762415 491.790482243984 L 296 496 L 306.16267485762415 500.209517756016"/></g><g transform="translate(-94,-78) scale(1,1)"><path fill="none" stroke="#000000" d="M 306.16267485762415 491.790482243984 L 296 496 L 306.16267485762415 500.209517756016 L 306.16267485762415 491.790482243984" stroke-miterlimit="10"/></g><g transform="translate(-94,-78) scale(1,1)"><g><path fill="none" stroke="none"/><text fill="#000000" stroke="none" font-family="Arial" font-size="13px" font-style="normal" font-weight="normal" text-decoration="none" x="333" y="487">beginAuction()</text></g></g><g transform="translate(-94,-78) scale(1,1)"><g><path fill="none" stroke="none"/><text fill="#000000" stroke="none" font-family="Arial" font-size="13px" font-style="normal" font-weight="normal" text-decoration="none" x="333" y="463">[action = Didn't buy proporty]</text></g></g><g transform="translate(-94,-78) scale(1,1)"><rect fill="#4e73be" stroke="none" x="728" y="560" width="16" height="48"/></g><g transform="translate(-94,-78) scale(1,1)"><path fill="none" stroke="#000000" d="M 728 560 L 744 560 L 744 608 L 728 608 L 728 560 Z Z" stroke-miterlimit="10"/></g><g transform="translate(-94,-78) scale(1,1)"><path fill="none" stroke="#4e73be" d="M 736 184 L 736 632" stroke-miterlimit="10" stroke-dasharray="6,4"/></g><g transform="translate(-94,-78) scale(1,1)"><path fill="none" stroke="#000000" d="M 296 568 L 728 571" stroke-miterlimit="10"/></g><g transform="translate(-94,-78) scale(1,1)"><path fill="#000000" stroke="none" d="M 717.8083381252383 575.1388438277529 L 728 571 L 717.8668022399194 566.7200113136718"/></g><g transform="translate(-94,-78) scale(1,1)"><path fill="none" stroke="#000000" d="M 717.8083381252383 575.1388438277529 L 728 571 L 717.8668022399194 566.7200113136718 L 717.8083381252383 575.1388438277529" stroke-miterlimit="10"/></g><g transform="translate(-94,-78) scale(1,1)"><g><path fill="none" stroke="none"/><text fill="#000000" stroke="none" font-family="Arial" font-size="13px" font-style="normal" font-weight="normal" text-decoration="none" x="445" y="559">askPrice()</text></g></g><g transform="translate(-94,-78) scale(1,1)"><path fill="none" stroke="#000000" d="M 728 600 L 296 600" stroke-miterlimit="10" stroke-dasharray="6,4"/></g><g transform="translate(-94,-78) scale(1,1)"><path fill="#000000" stroke="none" d="M 306.16267485762415 595.790482243984 L 296 600 L 306.16267485762415 604.209517756016"/></g><g transform="translate(-94,-78) scale(1,1)"><path fill="none" stroke="#000000" d="M 306.16267485762415 595.790482243984 L 296 600 L 306.16267485762415 604.209517756016 L 306.16267485762415 595.790482243984" stroke-miterlimit="10"/></g><g transform="translate(-94,-78) scale(1,1)"><g><path fill="none" stroke="none"/><text fill="#000000" stroke="none" font-family="Arial" font-size="13px" font-style="normal" font-weight="normal" text-decoration="none" x="357" y="591">price</text></g></g><g transform="translate(-94,-78) scale(1,1)"><path fill="none" stroke="#000000" d="M 296 672 L 328 672 L 328 712 L 296 712" stroke-miterlimit="10"/></g><g transform="translate(-94,-78) scale(1,1)"><path fill="#000000" stroke="none" d="M 306.16267485762415 707.790482243984 L 296 712 L 306.16267485762415 716.209517756016"/></g><g transform="translate(-94,-78) scale(1,1)"><path fill="none" stroke="#000000" d="M 306.16267485762415 707.790482243984 L 296 712 L 306.16267485762415 716.209517756016 L 306.16267485762415 707.790482243984" stroke-miterlimit="10"/></g><g transform="translate(-94,-78) scale(1,1)"><g><path fill="none" stroke="none"/><text fill="#000000" stroke="none" font-family="Arial" font-size="13px" font-style="normal" font-weight="normal" text-decoration="none" x="333" y="687">[Auction leads to something]</text></g></g><g transform="translate(-94,-78) scale(1,1)"><g><path fill="none" stroke="none"/><text fill="#000000" stroke="none" font-family="Arial" font-size="13px" font-style="normal" font-weight="normal" text-decoration="none" x="333" y="702">buyProperty(property, price)</text></g></g></g></svg>