<svg version="1.1" xmlns="http://www.w3.org/2000/svg" xmlns:xlink="http://www.w3.org/1999/xlink" width="1004" height="540"><defs/><g><text fill="#eeeeee" stroke="none" font-family="Arial" font-size="24px" font-style="normal" font-weight="normal" text-decoration="none" x="0" y="0"></text><text fill="#eeeeee" stroke="none" font-family="Arial" font-size="24px" font-style="normal" font-weight="normal" text-decoration="none" x="0" y="30"></text><text fill="#eeeeee" stroke="none" font-family="Arial" font-size="24px" font-style="normal" font-weight="normal" text-decoration="none" x="0" y="60"></text><text fill="#eeeeee" stroke="none" font-family="Arial" font-size="24px" font-style="normal" font-weight="normal" text-decoration="none" x="0" y="90"></text><text fill="#eeeeee" stroke="none" font-family="Arial" font-size="24px" font-style="normal" font-weight="normal" text-decoration="none" x="0" y="120"></text><text fill="#eeeeee" stroke="none" font-family="Arial" font-size="24px" font-style="normal" font-weight="normal" text-decoration="none" x="0" y="150"></text><text fill="#eeeeee" stroke="none" font-family="Arial" font-size="24px" font-style="normal" font-weight="normal" text-decoration="none" x="0" y="180"></text><text fill="#eeeeee" stroke="none" font-family="Arial" font-size="24px" font-style="normal" font-weight="normal" text-decoration="none" x="0" y="210"></text><text fill="#eeeeee" stroke="none" font-family="Arial" font-size="24px" font-style="normal" font-weight="normal" text-decoration="none" x="0" y="240"></text><text fill="#eeeeee" stroke="none" font-family="Arial" font-size="24px" font-style="normal" font-weight="normal" text-decoration="none" x="0" y="270"></text><text fill="#eeeeee" stroke="none" font-family="Arial" font-size="24px" font-style="normal" font-weight="normal" text-decoration="none" x="0" y="300"></text><text fill="#eeeeee" stroke="none" font-family="Arial" font-size="24px" font-style="normal" font-weight="normal" text-decoration="none" x="0" y="330"></text><text fill="#eeeeee" stroke="none" font-family="Arial" font-size="24px" font-style="normal" font-weight="normal" text-decoration="none" x="0" y="360"></text><text fill="#eeeeee" stroke="none" font-family="Arial" font-size="24px" font-style="normal" font-weight="normal" text-decoration="none" x="0" y="390"></text><text fill="#eeeeee" stroke="none" font-family="Arial" font-size="24px" font-style="normal" font-weight="normal" text-decoration="none" x="0" y="420"></text><text fill="#eeeeee" stroke="none" font-family="Arial" font-size="24px" font-style="normal" font-weight="normal" text-decoration="none" x="0" y="450"></text><text fill="#eeeeee" stroke="none" font-family="Arial" font-size="24px" font-style="normal" font-weight="normal" text-decoration="none" x="0" y="480"></text><text fill="#eeeeee" stroke="none" font-family="Arial" font-size="24px" font-style="normal" font-weight="normal" text-decoration="none" x="0" y="510"></text><text fill="#eeeeee" stroke="none" font-family="Arial" font-size="24px" font-style="normal" font-weight="normal" text-decoration="none" x="200" y="0"></text><text fill="#eeeeee" stroke="none" font-family="Arial" font-size="24px" font-style="normal" font-weight="normal" text-decoration="none" x="200" y="30"></text><text fill="#eeeeee" stroke="none" font-family="Arial" font-size="24px" font-style="normal" font-weight="normal" text-decoration="none" x="200" y="60"></text><text fill="#eeeeee" stroke="none" font-family="Arial" font-size="24px" font-style="normal" font-weight="normal" text-decoration="none" x="200" y="90"></text><text fill="#eeeeee" stroke="none" font-family="Arial" font-size="24px" font-style="normal" font-weight="normal" text-decoration="none" x="200" y="120"></text><text fill="#eeeeee" stroke="none" font-family="Arial" font-size="24px" font-style="normal" font-weight="normal" text-decoration="none" x="200" y="150"></text><text fill="#eeeeee" stroke="none" font-family="Arial" font-size="24px" font-style="normal" font-weight="normal" text-decoration="none" x="200" y="180"></text><text fill="#eeeeee" stroke="none" font-family="Arial" font-size="24px" font-style="normal" font-weight="normal" text-decoration="none" x="200" y="210"></text><text fill="#eeeeee" stroke="none" font-family="Arial" font-size="24px" font-style="normal" font-weight="normal" text-decoration="none" x="200" y="240"></text><text fill="#eeeeee" stroke="none" font-family="Arial" font-size="24px" font-style="normal" font-weight="normal" text-decoration="none" x="200" y="270"></text><text fill="#eeeeee" stroke="none" font-family="Arial" font-size="24px" font-style="normal" font-weight="normal" text-decoration="none" x="200" y="300"></text><text fill="#eeeeee" stroke="none" font-family="Arial" font-size="24px" font-style="normal" font-weight="normal" text-decoration="none" x="200" y="330"></text><text fill="#eeeeee" stroke="none" font-family="Arial" font-size="24px" font-style="normal" font-weight="normal" text-decoration="none" x="200" y="360"></text><text fill="#eeeeee" stroke="none" font-family="Arial" font-size="24px" font-style="normal" font-weight="normal" text-decoration="none" x="200" y="390"></text><text fill="#eeeeee" stroke="none" font-family="Arial" font-size="24px" font-style="normal" font-weight="normal" text-decoration="none" x="200" y="420"></text><text fill="#eeeeee" stroke="none" font-family="Arial" font-size="24px" font-style="normal" font-weight="normal" text-decoration="none" x="200" y="450"></text><text fill="#eeeeee" stroke="none" font-family="Arial" font-size="24px" font-style="normal" font-weight="normal" text-decoration="none" x="200" y="480"></text><text fill="#eeeeee" stroke="none" font-family="Arial" font-size="24px" font-style="normal" font-weight="normal" text-decoration="none" x="200" y="510"></text><text fill="#eeeeee" stroke="none" font-family="Arial" font-size="24px" font-style="normal" font-weight="normal" text-decoration="none" x="400" y="0"></text><text fill="#eeeeee" stroke="none" font-family="Arial" font-size="24px" font-style="normal" font-weight="normal" text-decoration="none" x="400" y="30"></text><text fill="#eeeeee" stroke="none" font-family="Arial" font-size="24px" font-style="normal" font-weight="normal" text-decoration="none" x="400" y="60"></text><text fill="#eeeeee" stroke="none" font-family="Arial" font-size="24px" font-style="normal" font-weight="normal" text-decoration="none" x="400" y="90"></text><text fill="#eeeeee" stroke="none" font-family="Arial" font-size="24px" font-style="normal" font-weight="normal" text-decoration="none" x="400" y="120"></text><text fill="#eeeeee" stroke="none" font-family="Arial" font-size="24px" font-style="normal" font-weight="normal" text-decoration="none" x="400" y="150"></text><text fill="#eeeeee" stroke="none" font-family="Arial" font-size="24px" font-style="normal" font-weight="normal" text-decoration="none" x="400" y="180"></text><text fill="#eeeeee" stroke="none" font-family="Arial" font-size="24px" font-style="normal" font-weight="normal" text-decoration="none" x="400" y="210"></text><text fill="#eeeeee" stroke="none" font-family="Arial" font-size="24px" font-style="normal" font-weight="normal" text-decoration="none" x="400" y="240"></text><text fill="#eeeeee" stroke="none" font-family="Arial" font-size="24px" font-style="normal" font-weight="normal" text-decoration="none" x="400" y="270"></text><text fill="#eeeeee" stroke="none" font-family="Arial" font-size="24px" font-style="normal" font-weight="normal" text-decoration="none" x="400" y="300"></text><text fill="#eeeeee" stroke="none" font-family="Arial" font-size="24px" font-style="normal" font-weight="normal" text-decoration="none" x="400" y="330"></text><text fill="#eeeeee" stroke="none" font-family="Arial" font-size="24px" font-style="normal" font-weight="normal" text-decoration="none" x="400" y="360"></text><text fill="#eeeeee" stroke="none" font-family="Arial" font-size="24px" font-style="normal" font-weight="normal" text-decoration="none" x="400" y="390"></text><text fill="#eeeeee" stroke="none" font-family="Arial" font-size="24px" font-style="normal" font-weight="normal" text-decoration="none" x="400" y="420"></text><text fill="#eeeeee" stroke="none" font-family="Arial" font-size="24px" font-style="normal" font-weight="normal" text-decoration="none" x="400" y="450"></text><text fill="#eeeeee" stroke="none" font-family="Arial" font-size="24px" font-style="normal" font-weight="normal" text-decoration="none" x="400" y="480"></text><text fill="#eeeeee" stroke="none" font-family="Arial" font-size="24px" font-style="normal" font-weight="normal" text-decoration="none" x="400" y="510"></text><text fill="#eeeeee" stroke="none" font-family="Arial" font-size="24px" font-style="normal" font-weight="normal" text-decoration="none" x="600" y="0"></text><text fill="#eeeeee" stroke="none" font-family="Arial" font-size="24px" font-style="normal" font-weight="normal" text-decoration="none" x="600" y="30"></text><text fill="#eeeeee" stroke="none" font-family="Arial" font-size="24px" font-style="normal" font-weight="normal" text-decoration="none" x="600" y="60"></text><text fill="#eeeeee" stroke="none" font-family="Arial" font-size="24px" font-style="normal" font-weight="normal" text-decoration="none" x="600" y="90"></text><text fill="#eeeeee" stroke="none" font-family="Arial" font-size="24px" font-style="normal" font-weight="normal" text-decoration="none" x="600" y="120"></text><text fill="#eeeeee" stroke="none" font-family="Arial" font-size="24px" font-style="normal" font-weight="normal" text-decoration="none" x="600" y="150"></text><text fill="#eeeeee" stroke="none" font-family="Arial" font-size="24px" font-style="normal" font-weight="normal" text-decoration="none" x="600" y="180"></text><text fill="#eeeeee" stroke="none" font-family="Arial" font-size="24px" font-style="normal" font-weight="normal" text-decoration="none" x="600" y="210"></text><text fill="#eeeeee" stroke="none" font-family="Arial" font-size="24px" font-style="normal" font-weight="normal" text-decoration="none" x="600" y="240"></text><text fill="#eeeeee" stroke="none" font-family="Arial" font-size="24px" font-style="normal" font-weight="normal" text-decoration="none" x="600" y="270"></text><text fill="#eeeeee" stroke="none" font-family="Arial" font-size="24px" font-style="normal" font-weight="normal" text-decoration="none" x="600" y="300"></text><text fill="#eeeeee" stroke="none" font-family="Arial" font-size="24px" font-style="normal" font-weight="normal" text-decoration="none" x="600" y="330"></text><text fill="#eeeeee" stroke="none" font-family="Arial" font-size="24px" font-style="normal" font-weight="normal" text-decoration="none" x="600" y="360"></text><text fill="#eeeeee" stroke="none" font-family="Arial" font-size="24px" font-style="normal" font-weight="normal" text-decoration="none" x="600" y="390"></text><text fill="#eeeeee" stroke="none" font-family="Arial" font-size="24px" font-style="normal" font-weight="normal" text-decoration="none" x="600" y="420"></text><text fill="#eeeeee" stroke="none" font-family="Arial" font-size="24px" font-style="normal" font-weight="normal" text-decoration="none" x="600" y="450"></text><text fill="#eeeeee" stroke="none" font-family="Arial" font-size="24px" font-style="normal" font-weight="normal" text-decoration="none" x="600" y="480"></text><text fill="#eeeeee" stroke="none" font-family="Arial" font-size="24px" font-style="normal" font-weight="normal" text-decoration="none" x="600" y="510"></text><text fill="#eeeeee" stroke="none" font-family="Arial" font-size="24px" font-style="normal" font-weight="normal" text-decoration="none" x="800" y="0"></text><text fill="#eeeeee" stroke="none" font-family="Arial" font-size="24px" font-style="normal" font-weight="normal" text-decoration="none" x="800" y="30"></text><text fill="#eeeeee" stroke="none" font-family="Arial" font-size="24px" font-style="normal" font-weight="normal" text-decoration="none" x="800" y="60"></text><text fill="#eeeeee" stroke="none" font-family="Arial" font-size="24px" font-style="normal" font-weight="normal" text-decoration="none" x="800" y="90"></text><text fill="#eeeeee" stroke="none" font-family="Arial" font-size="24px" font-style="normal" font-weight="normal" text-decoration="none" x="800" y="120"></text><text fill="#eeeeee" stroke="none" font-family="Arial" font-size="24px" font-style="normal" font-weight="normal" text-decoration="none" x="800" y="150"></text><text fill="#eeeeee" stroke="none" font-family="Arial" font-size="24px" font-style="normal" font-weight="normal" text-decoration="none" x="800" y="180"></text><text fill="#eeeeee" stroke="none" font-family="Arial" font-size="24px" font-style="normal" font-weight="normal" text-decoration="none" x="800" y="210"></text><text fill="#eeeeee" stroke="none" font-family="Arial" font-size="24px" font-style="normal" font-weight="normal" text-decoration="none" x="800" y="240"></text><text fill="#eeeeee" stroke="none" font-family="Arial" font-size="24px" font-style="normal" font-weight="normal" text-decoration="none" x="800" y="270"></text><text fill="#eeeeee" stroke="none" font-family="Arial" font-size="24px" font-style="normal" font-weight="normal" text-decoration="none" x="800" y="300"></text><text fill="#eeeeee" stroke="none" font-family="Arial" font-size="24px" font-style="normal" font-weight="normal" text-decoration="none" x="800" y="330"></text><text fill="#eeeeee" stroke="none" font-family="Arial" font-size="24px" font-style="normal" font-weight="normal" text-decoration="none" x="800" y="360"></text><text fill="#eeeeee" stroke="none" font-family="Arial" font-size="24px" font-style="normal" font-weight="normal" text-decoration="none" x="800" y="390"></text><text fill="#eeeeee" stroke="none" font-family="Arial" font-size="24px" font-style="normal" font-weight="normal" text-decoration="none" x="800" y="420"></text><text fill="#eeeeee" stroke="none" font-family="Arial" font-size="24px" font-style="normal" font-weight="normal" text-decoration="none" x="800" y="450"></text><text fill="#eeeeee" stroke="none" font-family="Arial" font-size="24px" font-style="normal" font-weight="normal" text-decoration="none" x="800" y="480"></text><text fill="#eeeeee" stroke="none" font-family="Arial" font-size="24px" font-style="normal" font-weight="normal" text-decoration="none" x="800" y="510"></text><text fill="#eeeeee" stroke="none" font-family="Arial" font-size="24px" font-style="normal" font-weight="normal" text-decoration="none" x="1000" y="0"></text><text fill="#eeeeee" stroke="none" font-family="Arial" font-size="24px" font-style="normal" font-weight="normal" text-decoration="none" x="1000" y="30"></text><text fill="#eeeeee" stroke="none" font-family="Arial" font-size="24px" font-style="normal" font-weight="normal" text-decoration="none" x="1000" y="60"></text><text fill="#eeeeee" stroke="none" font-family="Arial" font-size="24px" font-style="normal" font-weight="normal" text-decoration="none" x="1000" y="90"></text><text fill="#eeeeee" stroke="none" font-family="Arial" font-size="24px" font-style="normal" font-weight="normal" text-decoration="none" x="1000" y="120"></text><text fill="#eeeeee" stroke="none" font-family="Arial" font-size="24px" font-style="normal" font-weight="normal" text-decoration="none" x="1000" y="150"></text><text fill="#eeeeee" stroke="none" font-family="Arial" font-size="24px" font-style="normal" font-weight="normal" text-decoration="none" x="1000" y="180"></text><text fill="#eeeeee" stroke="none" font-family="Arial" font-size="24px" font-style="normal" font-weight="normal" text-decoration="none" x="1000" y="210"></text><text fill="#eeeeee" stroke="none" font-family="Arial" font-size="24px" font-style="normal" font-weight="normal" text-decoration="none" x="1000" y="240"></text><text fill="#eeeeee" stroke="none" font-family="Arial" font-size="24px" font-style="normal" font-weight="normal" text-decoration="none" x="1000" y="270"></text><text fill="#eeeeee" stroke="none" font-family="Arial" font-size="24px" font-style="normal" font-weight="normal" text-decoration="none" x="1000" y="300"></text><text fill="#eeeeee" stroke="none" font-family="Arial" font-size="24px" font-style="normal" font-weight="normal" text-decoration="none" x="1000" y="330"></text><text fill="#eeeeee" stroke="none" font-family="Arial" font-size="24px" font-style="normal" font-weight="normal" text-decoration="none" x="1000" y="360"></text><text fill="#eeeeee" stroke="none" font-family="Arial" font-size="24px" font-style="normal" font-weight="normal" text-decoration="none" x="1000" y="390"></text><text fill="#eeeeee" stroke="none" font-family="Arial" font-size="24px" font-style="normal" font-weight="normal" text-decoration="none" x="1000" y="420"></text><text fill="#eeeeee" stroke="none" font-family="Arial" font-size="24px" font-style="normal" font-weight="normal" text-decoration="none" x="1000" y="450"></text><text fill="#eeeeee" stroke="none" font-family="Arial" font-size="24px" font-style="normal" font-weight="normal" text-decoration="none" x="1000" y="480"></text><text fill="#eeeeee" stroke="none" font-family="Arial" font-size="24px" font-style="normal" font-weight="normal" text-decoration="none" x="1000" y="510"></text><g transform="translate(-62,-166) scale(1,1)"><path fill="none" stroke="#4e73be" d="M 200 480 L 1056 480 L 1056 696 L 200 696 L 200 480" stroke-miterlimit="10"/></g><g transform="translate(-62,-166) scale(1,1)"><path fill="#ffffff" stroke="none" d="M 200 480 L 200 502 L 334.498046875 502 L 345.498046875 491 L 345.498046875 480 L 200 480"/></g><g transform="translate(-62,-166) scale(1,1)"><path fill="none" stroke="#4e73be" d="M 200 480 L 200 502 L 334.498046875 502 L 345.498046875 491 L 345.498046875 480 L 200 480 L 200 480" stroke-miterlimit="10"/></g><g transform="translate(-62,-166) scale(1,1)"><g><path fill="none" stroke="none"/><text fill="#4e73be" stroke="none" font-family="Arial" font-size="13px" font-style="normal" font-weight="normal" text-decoration="none" x="211" y="495.7099609375">Correct identification</text></g></g><g transform="translate(-62,-166) scale(1,1)"><g><path fill="none" stroke="none"/><text fill="#4e73be" stroke="none" font-family="Arial" font-size="13px" font-style="normal" font-weight="bold" text-decoration="none" x="205" y="491"></text></g></g><g transform="translate(-62,-166) scale(1,1)"><path fill="none" stroke="#4e73be" d="M 120 216 L 120 672" stroke-miterlimit="10" stroke-dasharray="6,4"/></g><g transform="translate(-62,-166) scale(1,1)"><rect fill="#4e73be" stroke="none" x="112" y="240" width="16" height="384"/></g><g transform="translate(-62,-166) scale(1,1)"><path fill="none" stroke="#000000" d="M 112 240 L 128 240 L 128 624 L 112 624 L 112 240 Z Z" stroke-miterlimit="10"/></g><g transform="translate(-62,-166) scale(1,1)"><path fill="none" stroke="#4e73be" d="M 360 216 L 358 672" stroke-miterlimit="10" stroke-dasharray="6,4"/></g><g transform="translate(-62,-166) scale(1,1)"><rect fill="#4e73be" stroke="none" x="352" y="240" width="16" height="384"/></g><g transform="translate(-62,-166) scale(1,1)"><path fill="none" stroke="#000000" d="M 352 240 L 368 240 L 368 624 L 352 624 L 352 240 Z Z" stroke-miterlimit="10"/></g><g transform="translate(-62,-166) scale(1,1)"><rect fill="#7a9de5" stroke="none" x="304" y="176" width="124.05615234375" height="38"/></g><g transform="translate(-62,-166) scale(1,1)"><path fill="none" stroke="#000000" d="M 304 176 L 428.05615234375 176 L 428.05615234375 214 L 304 214 L 304 176 Z Z" stroke-miterlimit="10"/></g><g transform="translate(-62,-166) scale(1,1)"><g><path fill="none" stroke="none"/><text fill="#ffffff" stroke="none" font-family="Arial" font-size="15px" font-style="normal" font-weight="normal" text-decoration="none" x="318.076416015625" y="197.869140625">LoginManager</text></g></g><g transform="translate(-62,-166) scale(1,1)"><rect fill="#7a9de5" stroke="none" x="72" y="176" width="104" height="38"/></g><g transform="translate(-62,-166) scale(1,1)"><path fill="none" stroke="#000000" d="M 72 176 L 176 176 L 176 214 L 72 214 L 72 176 Z Z" stroke-miterlimit="10"/></g><g transform="translate(-62,-166) scale(1,1)"><g><path fill="none" stroke="none"/><text fill="#ffffff" stroke="none" font-family="Arial" font-size="15px" font-style="normal" font-weight="normal" text-decoration="none" x="108.1650390625" y="197.31982421875">User</text></g></g><g transform="translate(-62,-166) scale(1,1)"><path fill="none" stroke="#4e73be" d="M 648 216 L 648 672" stroke-miterlimit="10" stroke-dasharray="6,4"/></g><g transform="translate(-62,-166) scale(1,1)"><rect fill="#7a9de5" stroke="none" x="592" y="176" width="120" height="38"/></g><g transform="translate(-62,-166) scale(1,1)"><path fill="none" stroke="#000000" d="M 592 176 L 712 176 L 712 214 L 592 214 L 592 176 Z Z" stroke-miterlimit="10"/></g><g transform="translate(-62,-166) scale(1,1)"><g><path fill="none" stroke="none"/><text fill="#ffffff" stroke="none" font-family="Arial" font-size="15px" font-style="normal" font-weight="normal" text-decoration="none" x="619.894287109375" y="197.869140625">Database</text></g></g><g transform="translate(-62,-166) scale(1,1)"><rect fill="#4e73be" stroke="none" x="640" y="240" width="16" height="376"/></g><g transform="translate(-62,-166) scale(1,1)"><path fill="none" stroke="#000000" d="M 640 240 L 656 240 L 656 616 L 640 616 L 640 240 Z Z" stroke-miterlimit="10"/></g><g transform="translate(-62,-166) scale(1,1)"><path fill="none" stroke="#000000" d="M 128 272 L 352 272" stroke-miterlimit="10"/></g><g transform="translate(-62,-166) scale(1,1)"><path fill="#000000" stroke="none" d="M 341.83732514237585 276.209517756016 L 352 272 L 341.83732514237585 267.790482243984"/></g><g transform="translate(-62,-166) scale(1,1)"><path fill="none" stroke="#000000" d="M 341.83732514237585 276.209517756016 L 352 272 L 341.83732514237585 267.790482243984 L 341.83732514237585 276.209517756016" stroke-miterlimit="10"/></g><g transform="translate(-62,-166) scale(1,1)"><path fill="none" stroke="#4e73be" d="M 968 200 L 968 672" stroke-miterlimit="10" stroke-dasharray="6,4"/></g><g transform="translate(-62,-166) scale(1,1)"><rect fill="#7a9de5" stroke="none" x="920" y="176" width="104" height="38"/></g><g transform="translate(-62,-166) scale(1,1)"><path fill="none" stroke="#000000" d="M 920 176 L 1024 176 L 1024 214 L 920 214 L 920 176 Z Z" stroke-miterlimit="10"/></g><g transform="translate(-62,-166) scale(1,1)"><g><path fill="none" stroke="none"/><text fill="#ffffff" stroke="none" font-family="Arial" font-size="16px" font-style="normal" font-weight="normal" text-decoration="none" x="928.875" y="198.171875">GameRoom</text></g></g><g transform="translate(-62,-166) scale(1,1)"><g><path fill="none" stroke="none"/><text fill="#000000" stroke="none" font-family="Arial" font-size="13px" font-style="normal" font-weight="normal" text-decoration="none" x="405" y="302.419921875">checkValidity()</text></g></g><g transform="translate(-62,-166) scale(1,1)"><g><path fill="none" stroke="none"/><text fill="#000000" stroke="none" font-family="Arial" font-size="13px" font-style="normal" font-weight="normal" text-decoration="none" x="133" y="254.419921875">loginRequest(username, password)</text></g></g><g transform="translate(-62,-166) scale(1,1)"><rect fill="#4e73be" stroke="none" x="960" y="240" width="16" height="383"/></g><g transform="translate(-62,-166) scale(1,1)"><path fill="none" stroke="#000000" d="M 960 240 L 976 240 L 976 623 L 960 623 L 960 240 Z Z" stroke-miterlimit="10"/></g><g transform="translate(-62,-166) scale(1,1)"><path fill="none" stroke="#000000" d="M 640 432 L 368 432" stroke-miterlimit="10" stroke-dasharray="6,4"/></g><g transform="translate(-62,-166) scale(1,1)"><path fill="#000000" stroke="none" d="M 378.16267485762415 427.790482243984 L 368 432 L 378.16267485762415 436.209517756016"/></g><g transform="translate(-62,-166) scale(1,1)"><path fill="none" stroke="#000000" d="M 378.16267485762415 427.790482243984 L 368 432 L 378.16267485762415 436.209517756016 L 378.16267485762415 427.790482243984" stroke-miterlimit="10"/></g><g transform="translate(-62,-166) scale(1,1)"><path fill="none" stroke="#000000" d="M 352 328 L 128 327" stroke-miterlimit="10" stroke-dasharray="6,4"/></g><g transform="translate(-62,-166) scale(1,1)"><path fill="#000000" stroke="none" d="M 138.18136589157996 322.8358928229724 L 128 327 L 138.14378128614138 331.25484444121383"/></g><g transform="translate(-62,-166) scale(1,1)"><path fill="none" stroke="#000000" d="M 138.18136589157996 322.8358928229724 L 128 327 L 138.14378128614138 331.25484444121383 L 138.18136589157996 322.8358928229724" stroke-miterlimit="10"/></g><g transform="translate(-62,-166) scale(1,1)"><g><path fill="none" stroke="none"/><text fill="#000000" stroke="none" font-family="Arial" font-size="13px" font-style="normal" font-weight="normal" text-decoration="none" x="165" y="318.419921875">[validity = false] Invalid input</text></g></g><g transform="translate(-62,-166) scale(1,1)"><path fill="none" stroke="#000000" d="M 368 376 L 640 376" stroke-miterlimit="10"/></g><g transform="translate(-62,-166) scale(1,1)"><path fill="#000000" stroke="none" d="M 629.8373251423759 380.209517756016 L 640 376 L 629.8373251423758 371.790482243984"/></g><g transform="translate(-62,-166) scale(1,1)"><path fill="none" stroke="#000000" d="M 629.8373251423759 380.209517756016 L 640 376 L 629.8373251423758 371.790482243984 L 629.8373251423759 380.209517756016" stroke-miterlimit="10"/></g><g transform="translate(-62,-166) scale(1,1)"><g><path fill="none" stroke="none"/><text fill="#000000" stroke="none" font-family="Arial" font-size="13px" font-style="normal" font-weight="normal" text-decoration="none" x="373" y="366.419921875">[validity = true] search(username, password)</text></g></g><g transform="translate(-62,-166) scale(1,1)"><path fill="none" stroke="#000000" d="M 368 280 L 400 280 L 400 312 L 368 312" stroke-miterlimit="10"/></g><g transform="translate(-62,-166) scale(1,1)"><path fill="#000000" stroke="none" d="M 378.16267485762415 307.790482243984 L 368 312 L 378.16267485762415 316.209517756016"/></g><g transform="translate(-62,-166) scale(1,1)"><path fill="none" stroke="#000000" d="M 378.16267485762415 307.790482243984 L 368 312 L 378.16267485762415 316.209517756016 L 378.16267485762415 307.790482243984" stroke-miterlimit="10"/></g><g transform="translate(-62,-166) scale(1,1)"><path fill="none" stroke="#000000" d="M 640 432 L 616 448 L 368 448" stroke-miterlimit="10" stroke-dasharray="6,4"/></g><g transform="translate(-62,-166) scale(1,1)"><path fill="#000000" stroke="none" d="M 378.16267485762415 443.790482243984 L 368 448 L 378.16267485762415 452.209517756016"/></g><g transform="translate(-62,-166) scale(1,1)"><path fill="none" stroke="#000000" d="M 378.16267485762415 443.790482243984 L 368 448 L 378.16267485762415 452.209517756016 L 378.16267485762415 443.790482243984" stroke-miterlimit="10"/></g><g transform="translate(-62,-166) scale(1,1)"><g><path fill="none" stroke="none"/><text fill="#000000" stroke="none" font-family="Arial" font-size="13px" font-style="normal" font-weight="normal" text-decoration="none" x="133" y="422.419921875">[recognized = false] Invalid username</text></g></g><g transform="translate(-62,-166) scale(1,1)"><path fill="none" stroke="#4e73be" d="M 368 536 L 960 536" stroke-miterlimit="10"/></g><g transform="translate(-62,-166) scale(1,1)"><path fill="#4e73be" stroke="none" d="M 949.8373251423759 540.209517756016 L 960 536 L 949.8373251423758 531.790482243984"/></g><g transform="translate(-62,-166) scale(1,1)"><path fill="none" stroke="#4e73be" d="M 949.8373251423759 540.209517756016 L 960 536 L 949.8373251423758 531.790482243984 L 949.8373251423759 540.209517756016" stroke-miterlimit="10"/></g><g transform="translate(-62,-166) scale(1,1)"><g><path fill="none" stroke="none"/><text fill="#000000" stroke="none" font-family="Arial" font-size="13px" font-style="normal" font-weight="normal" text-decoration="none" x="397" y="422.419921875">[recognized = false] Invalid username</text></g></g><g transform="translate(-62,-166) scale(1,1)"><path fill="none" stroke="#000000" d="M 560 488 L 560 488" stroke-miterlimit="10"/></g><g transform="translate(-62,-166) scale(1,1)"><path fill="none" stroke="#4e73be" d="M 640 432 L 616 504 L 368 504" stroke-miterlimit="10" stroke-dasharray="6,4"/></g><g transform="translate(-62,-166) scale(1,1)"><path fill="#4e73be" stroke="none" d="M 378.16267485762415 499.790482243984 L 368 504 L 378.16267485762415 508.209517756016"/></g><g transform="translate(-62,-166) scale(1,1)"><path fill="none" stroke="#4e73be" d="M 378.16267485762415 499.790482243984 L 368 504 L 378.16267485762415 508.209517756016 L 378.16267485762415 499.790482243984" stroke-miterlimit="10"/></g><g transform="translate(-62,-166) scale(1,1)"><g><path fill="none" stroke="none"/><text fill="#4e73be" stroke="none" font-family="Arial" font-size="13px" font-style="normal" font-weight="normal" text-decoration="none" x="437" y="494.419921875">[correct = true]</text></g></g><g transform="translate(-62,-166) scale(1,1)"><g><path fill="none" stroke="none"/><text fill="#4e73be" stroke="none" font-family="Arial" font-size="13px" font-style="normal" font-weight="normal" text-decoration="none" x="789" y="518.419921875">connectClient()</text></g></g><g transform="translate(-62,-166) scale(1,1)"><path fill="none" stroke="#000000" d="M 352 432 L 128 432" stroke-miterlimit="10" stroke-dasharray="6,4"/></g><g transform="translate(-62,-166) scale(1,1)"><path fill="#000000" stroke="none" d="M 138.16267485762415 427.790482243984 L 128 432 L 138.16267485762415 436.209517756016"/></g><g transform="translate(-62,-166) scale(1,1)"><path fill="none" stroke="#000000" d="M 138.16267485762415 427.790482243984 L 128 432 L 138.16267485762415 436.209517756016 L 138.16267485762415 427.790482243984" stroke-miterlimit="10"/></g><g transform="translate(-62,-166) scale(1,1)"><g><path fill="none" stroke="none"/><text fill="#000000" stroke="none" font-family="Arial" font-size="13px" font-style="normal" font-weight="normal" text-decoration="none" x="141" y="462.419921875">[correct = false] Invalid password</text></g></g><g transform="translate(-62,-166) scale(1,1)"><path fill="none" stroke="#000000" d="M 312 504 L 312 504" stroke-miterlimit="10"/></g><g transform="translate(-62,-166) scale(1,1)"><path fill="none" stroke="#000000" d="M 352 448 L 128 448" stroke-miterlimit="10" stroke-dasharray="6,4"/></g><g transform="translate(-62,-166) scale(1,1)"><path fill="#000000" stroke="none" d="M 138.16267485762415 443.790482243984 L 128 448 L 138.16267485762415 452.209517756016"/></g><g transform="translate(-62,-166) scale(1,1)"><path fill="none" stroke="#000000" d="M 138.16267485762415 443.790482243984 L 128 448 L 138.16267485762415 452.209517756016 L 138.16267485762415 443.790482243984" stroke-miterlimit="10"/></g><g transform="translate(-62,-166) scale(1,1)"><g><path fill="none" stroke="none"/><text fill="#000000" stroke="none" font-family="Arial" font-size="13px" font-style="normal" font-weight="normal" text-decoration="none" x="405" y="462.419921875">[correct = false] Invalid password</text></g></g></g></svg>