<svg version="1.1" xmlns="http://www.w3.org/2000/svg" xmlns:xlink="http://www.w3.org/1999/xlink" width="804" height="252"><defs/><g><text fill="#eeeeee" stroke="none" font-family="Arial" font-size="24px" font-style="normal" font-weight="normal" text-decoration="none" x="0" y="0"></text><text fill="#eeeeee" stroke="none" font-family="Arial" font-size="24px" font-style="normal" font-weight="normal" text-decoration="none" x="0" y="30"></text><text fill="#eeeeee" stroke="none" font-family="Arial" font-size="24px" font-style="normal" font-weight="normal" text-decoration="none" x="0" y="60"></text><text fill="#eeeeee" stroke="none" font-family="Arial" font-size="24px" font-style="normal" font-weight="normal" text-decoration="none" x="0" y="90"></text><text fill="#eeeeee" stroke="none" font-family="Arial" font-size="24px" font-style="normal" font-weight="normal" text-decoration="none" x="0" y="120"></text><text fill="#eeeeee" stroke="none" font-family="Arial" font-size="24px" font-style="normal" font-weight="normal" text-decoration="none" x="0" y="150"></text><text fill="#eeeeee" stroke="none" font-family="Arial" font-size="24px" font-style="normal" font-weight="normal" text-decoration="none" x="0" y="180"></text><text fill="#eeeeee" stroke="none" font-family="Arial" font-size="24px" font-style="normal" font-weight="normal" text-decoration="none" x="0" y="210"></text><text fill="#eeeeee" stroke="none" font-family="Arial" font-size="24px" font-style="normal" font-weight="normal" text-decoration="none" x="0" y="240"></text><text fill="#eeeeee" stroke="none" font-family="Arial" font-size="24px" font-style="normal" font-weight="normal" text-decoration="none" x="200" y="0"></text><text fill="#eeeeee" stroke="none" font-family="Arial" font-size="24px" font-style="normal" font-weight="normal" text-decoration="none" x="200" y="30"></text><text fill="#eeeeee" stroke="none" font-family="Arial" font-size="24px" font-style="normal" font-weight="normal" text-decoration="none" x="200" y="60"></text><text fill="#eeeeee" stroke="none" font-family="Arial" font-size="24px" font-style="normal" font-weight="normal" text-decoration="none" x="200" y="90"></text><text fill="#eeeeee" stroke="none" font-family="Arial" font-size="24px" font-style="normal" font-weight="normal" text-decoration="none" x="200" y="120"></text><text fill="#eeeeee" stroke="none" font-family="Arial" font-size="24px" font-style="normal" font-weight="normal" text-decoration="none" x="200" y="150"></text><text fill="#eeeeee" stroke="none" font-family="Arial" font-size="24px" font-style="normal" font-weight="normal" text-decoration="none" x="200" y="180"></text><text fill="#eeeeee" stroke="none" font-family="Arial" font-size="24px" font-style="normal" font-weight="normal" text-decoration="none" x="200" y="210"></text><text fill="#eeeeee" stroke="none" font-family="Arial" font-size="24px" font-style="normal" font-weight="normal" text-decoration="none" x="200" y="240"></text><text fill="#eeeeee" stroke="none" font-family="Arial" font-size="24px" font-style="normal" font-weight="normal" text-decoration="none" x="400" y="0"></text><text fill="#eeeeee" stroke="none" font-family="Arial" font-size="24px" font-style="normal" font-weight="normal" text-decoration="none" x="400" y="30"></text><text fill="#eeeeee" stroke="none" font-family="Arial" font-size="24px" font-style="normal" font-weight="normal" text-decoration="none" x="400" y="60"></text><text fill="#eeeeee" stroke="none" font-family="Arial" font-size="24px" font-style="normal" font-weight="normal" text-decoration="none" x="400" y="90"></text><text fill="#eeeeee" stroke="none" font-family="Arial" font-size="24px" font-style="normal" font-weight="normal" text-decoration="none" x="400" y="120"></text><text fill="#eeeeee" stroke="none" font-family="Arial" font-size="24px" font-style="normal" font-weight="normal" text-decoration="none" x="400" y="150"></text><text fill="#eeeeee" stroke="none" font-family="Arial" font-size="24px" font-style="normal" font-weight="normal" text-decoration="none" x="400" y="180"></text><text fill="#eeeeee" stroke="none" font-family="Arial" font-size="24px" font-style="normal" font-weight="normal" text-decoration="none" x="400" y="210"></text><text fill="#eeeeee" stroke="none" font-family="Arial" font-size="24px" font-style="normal" font-weight="normal" text-decoration="none" x="400" y="240"></text><text fill="#eeeeee" stroke="none" font-family="Arial" font-size="24px" font-style="normal" font-weight="normal" text-decoration="none" x="600" y="0"></text><text fill="#eeeeee" stroke="none" font-family="Arial" font-size="24px" font-style="normal" font-weight="normal" text-decoration="none" x="600" y="30"></text><text fill="#eeeeee" stroke="none" font-family="Arial" font-size="24px" font-style="normal" font-weight="normal" text-decoration="none" x="600" y="60"></text><text fill="#eeeeee" stroke="none" font-family="Arial" font-size="24px" font-style="normal" font-weight="normal" text-decoration="none" x="600" y="90"></text><text fill="#eeeeee" stroke="none" font-family="Arial" font-size="24px" font-style="normal" font-weight="normal" text-decoration="none" x="600" y="120"></text><text fill="#eeeeee" stroke="none" font-family="Arial" font-size="24px" font-style="normal" font-weight="normal" text-decoration="none" x="600" y="150"></text><text fill="#eeeeee" stroke="none" font-family="Arial" font-size="24px" font-style="normal" font-weight="normal" text-decoration="none" x="600" y="180"></text><text fill="#eeeeee" stroke="none" font-family="Arial" font-size="24px" font-style="normal" font-weight="normal" text-decoration="none" x="600" y="210"></text><text fill="#eeeeee" stroke="none" font-family="Arial" font-size="24px" font-style="normal" font-weight="normal" text-decoration="none" x="600" y="240"></text><text fill="#eeeeee" stroke="none" font-family="Arial" font-size="24px" font-style="normal" font-weight="normal" text-decoration="none" x="800" y="0"></text><text fill="#eeeeee" stroke="none" font-family="Arial" font-size="24px" font-style="normal" font-weight="normal" text-decoration="none" x="800" y="30"></text><text fill="#eeeeee" stroke="none" font-family="Arial" font-size="24px" font-style="normal" font-weight="normal" text-decoration="none" x="800" y="60"></text><text fill="#eeeeee" stroke="none" font-family="Arial" font-size="24px" font-style="normal" font-weight="normal" text-decoration="none" x="800" y="90"></text><text fill="#eeeeee" stroke="none" font-family="Arial" font-size="24px" font-style="normal" font-weight="normal" text-decoration="none" x="800" y="120"></text><text fill="#eeeeee" stroke="none" font-family="Arial" font-size="24px" font-style="normal" font-weight="normal" text-decoration="none" x="800" y="150"></text><text fill="#eeeeee" stroke="none" font-family="Arial" font-size="24px" font-style="normal" font-weight="normal" text-decoration="none" x="800" y="180"></text><text fill="#eeeeee" stroke="none" font-family="Arial" font-size="24px" font-style="normal" font-weight="normal" text-decoration="none" x="800" y="210"></text><text fill="#eeeeee" stroke="none" font-family="Arial" font-size="24px" font-style="normal" font-weight="normal" text-decoration="none" x="800" y="240"></text><g transform="translate(-198,-326) scale(1,1)"><rect fill="#C0C0C0" stroke="none" x="439" y="343" width="560" height="232" opacity="0.2"/></g><g transform="translate(-198,-326) scale(1,1)"><rect fill="#ffffff" stroke="none" x="432" y="336" width="560" height="232"/></g><g transform="translate(-198,-326) scale(1,1)"><path fill="none" stroke="#000000" d="M 432 336 L 992 336 L 992 568 L 432 568 L 432 336 Z Z" stroke-miterlimit="10"/></g><g transform="translate(-198,-326) scale(1,1)"><g><path fill="none" stroke="none"/><text fill="#000000" stroke="none" font-family="Arial" font-size="13px" font-style="normal" font-weight="bold" text-decoration="none" x="627.46826171875" y="354">Bidding Process GamePlay</text></g></g><g transform="translate(-198,-326) scale(1,1)"><path fill="#ffffff" stroke="none" d="M 268.329521484375 411.2 C 268.329521484375 401.14841664 276.24512622037497 393 286.009521484375 393 C 295.77391674837503 393 303.689521484375 401.14841664 303.689521484375 411.2 C 303.689521484375 421.25158336 295.77391674837503 429.4 286.009521484375 429.4 C 276.24512622037497 429.4 268.329521484375 421.25158336 268.329521484375 411.2 Z"/></g><g transform="translate(-198,-326) scale(1,1)"><path fill="none" stroke="#000000" d="M 268.329521484375 411.2 C 268.329521484375 401.14841664 276.24512622037497 393 286.009521484375 393 C 295.77391674837503 393 303.689521484375 401.14841664 303.689521484375 411.2 C 303.689521484375 421.25158336 295.77391674837503 429.4 286.009521484375 429.4 C 276.24512622037497 429.4 268.329521484375 421.25158336 268.329521484375 411.2 Z" stroke-miterlimit="10"/></g><g transform="translate(-198,-326) scale(1,1)"><path fill="none" stroke="#000000" d="M 286.009521484375 429.4 L 286.009521484375 464.6" stroke-miterlimit="10"/></g><g transform="translate(-198,-326) scale(1,1)"><path fill="none" stroke="#000000" d="M 267.289521484375 442.6 L 304.729521484375 442.6" stroke-miterlimit="10"/></g><g transform="translate(-198,-326) scale(1,1)"><path fill="none" stroke="#000000" d="M 286.009521484375 464.6 L 260.009521484375 501" stroke-miterlimit="10"/></g><g transform="translate(-198,-326) scale(1,1)"><path fill="none" stroke="#000000" d="M 286.009521484375 464.6 L 312.009521484375 501" stroke-miterlimit="10"/></g><g transform="translate(-198,-326) scale(1,1)"><g><path fill="none" stroke="none"/><text fill="#000000" stroke="none" font-family="Arial" font-size="13px" font-style="normal" font-weight="bold" text-decoration="none" x="240.5" y="520">Bidding Player</text></g></g><g transform="translate(-198,-326) scale(1,1)"><path fill="#C0C0C0" stroke="none" d="M 487 399 C 487 381.3268864 524.6080768 367 571 367 C 617.3919232 367 655 381.3268864 655 399 C 655 416.6731136 617.3919232 431 571 431 C 524.6080768 431 487 416.6731136 487 399 Z" opacity="0.2"/></g><g transform="translate(-198,-326) scale(1,1)"><path fill="#ffffff" stroke="none" d="M 480 392 C 480 374.3268864 517.6080768 360 564 360 C 610.3919232 360 648 374.3268864 648 392 C 648 409.6731136 610.3919232 424 564 424 C 517.6080768 424 480 409.6731136 480 392 Z"/></g><g transform="translate(-198,-326) scale(1,1)"><path fill="none" stroke="#000000" d="M 480 392 C 480 374.3268864 517.6080768 360 564 360 C 610.3919232 360 648 374.3268864 648 392 C 648 409.6731136 610.3919232 424 564 424 C 517.6080768 424 480 409.6731136 480 392 Z" stroke-miterlimit="10"/></g><g transform="translate(-198,-326) scale(1,1)"><g><path fill="none" stroke="none"/><text fill="#000000" stroke="none" font-family="Arial" font-size="13px" font-style="normal" font-weight="bold" text-decoration="none" x="524.2890625" y="397.5">Stop bidding</text></g></g><g transform="translate(-198,-326) scale(1,1)"><path fill="#C0C0C0" stroke="none" d="M 487 519 C 487 501.3268864 515.4299152 487 550.5 487 C 585.5700848 487 614 501.3268864 614 519 C 614 536.6731136 585.5700848 551 550.5 551 C 515.4299152 551 487 536.6731136 487 519 Z" opacity="0.2"/></g><g transform="translate(-198,-326) scale(1,1)"><path fill="#ffffff" stroke="none" d="M 480 512 C 480 494.3268864 508.4299152 480 543.5 480 C 578.5700848 480 607 494.3268864 607 512 C 607 529.6731136 578.5700848 544 543.5 544 C 508.4299152 544 480 529.6731136 480 512 Z"/></g><g transform="translate(-198,-326) scale(1,1)"><path fill="none" stroke="#000000" d="M 480 512 C 480 494.3268864 508.4299152 480 543.5 480 C 578.5700848 480 607 494.3268864 607 512 C 607 529.6731136 578.5700848 544 543.5 544 C 508.4299152 544 480 529.6731136 480 512 Z" stroke-miterlimit="10"/></g><g transform="translate(-198,-326) scale(1,1)"><g><path fill="none" stroke="none"/><text fill="#000000" stroke="none" font-family="Arial" font-size="13px" font-style="normal" font-weight="bold" text-decoration="none" x="522.562255859375" y="517.5">Outbid</text></g></g><g transform="translate(-198,-326) scale(1,1)"><path fill="#C0C0C0" stroke="none" d="M 735 519 C 735 505.7451648 783.3532416 495 843 495 C 902.6467584 495 951 505.7451648 951 519 C 951 532.2548352 902.6467584 543 843 543 C 783.3532416 543 735 532.2548352 735 519 Z" opacity="0.2"/></g><g transform="translate(-198,-326) scale(1,1)"><path fill="#ffffff" stroke="none" d="M 728 512 C 728 498.7451648 776.3532416 488 836 488 C 895.6467584 488 944 498.7451648 944 512 C 944 525.2548352 895.6467584 536 836 536 C 776.3532416 536 728 525.2548352 728 512 Z"/></g><g transform="translate(-198,-326) scale(1,1)"><path fill="none" stroke="#000000" d="M 728 512 C 728 498.7451648 776.3532416 488 836 488 C 895.6467584 488 944 498.7451648 944 512 C 944 525.2548352 895.6467584 536 836 536 C 776.3532416 536 728 525.2548352 728 512 Z" stroke-miterlimit="10"/></g><g transform="translate(-198,-326) scale(1,1)"><g><path fill="none" stroke="none"/><text fill="#000000" stroke="none" font-family="Arial" font-size="13px" font-style="normal" font-weight="bold" text-decoration="none" x="773.5263671875" y="518">Choose amount of $</text></g></g><g transform="translate(-198,-326) scale(1,1)"><path fill="none" stroke="#000000" d="M 365 440 L 479 412" stroke-miterlimit="10"/></g><g transform="translate(-198,-326) scale(1,1)"><path fill="none" stroke="#000000" d="M 365 475 L 479 499" stroke-miterlimit="10"/></g><g transform="translate(-198,-326) scale(1,1)"><path fill="none" stroke="#000000" d="M 727 512 L 608 512" stroke-miterlimit="10" stroke-dasharray="3"/></g><g transform="translate(-198,-326) scale(1,1)"><path fill="none" stroke="#000000" d="M 618.1626748576241 507.790482243984 L 608 512 L 618.1626748576241 516.209517756016" stroke-miterlimit="10"/></g><g transform="translate(-198,-326) scale(1,1)"><g><path fill="none" stroke="none"/><text fill="#000000" stroke="none" font-family="Arial" font-size="13px" font-style="normal" font-weight="normal" text-decoration="none" x="643.5" y="501">«include»</text></g></g></g></svg>