<svg version="1.1" xmlns="http://www.w3.org/2000/svg" xmlns:xlink="http://www.w3.org/1999/xlink" width="404" height="388"><defs/><g><text fill="#eeeeee" stroke="none" font-family="Arial" font-size="24px" font-style="normal" font-weight="normal" text-decoration="none" x="0" y="0"></text><text fill="#eeeeee" stroke="none" font-family="Arial" font-size="24px" font-style="normal" font-weight="normal" text-decoration="none" x="0" y="30"></text><text fill="#eeeeee" stroke="none" font-family="Arial" font-size="24px" font-style="normal" font-weight="normal" text-decoration="none" x="0" y="60"></text><text fill="#eeeeee" stroke="none" font-family="Arial" font-size="24px" font-style="normal" font-weight="normal" text-decoration="none" x="0" y="90"></text><text fill="#eeeeee" stroke="none" font-family="Arial" font-size="24px" font-style="normal" font-weight="normal" text-decoration="none" x="0" y="120"></text><text fill="#eeeeee" stroke="none" font-family="Arial" font-size="24px" font-style="normal" font-weight="normal" text-decoration="none" x="0" y="150"></text><text fill="#eeeeee" stroke="none" font-family="Arial" font-size="24px" font-style="normal" font-weight="normal" text-decoration="none" x="0" y="180"></text><text fill="#eeeeee" stroke="none" font-family="Arial" font-size="24px" font-style="normal" font-weight="normal" text-decoration="none" x="0" y="210"></text><text fill="#eeeeee" stroke="none" font-family="Arial" font-size="24px" font-style="normal" font-weight="normal" text-decoration="none" x="0" y="240"></text><text fill="#eeeeee" stroke="none" font-family="Arial" font-size="24px" font-style="normal" font-weight="normal" text-decoration="none" x="0" y="270"></text><text fill="#eeeeee" stroke="none" font-family="Arial" font-size="24px" font-style="normal" font-weight="normal" text-decoration="none" x="0" y="300"></text><text fill="#eeeeee" stroke="none" font-family="Arial" font-size="24px" font-style="normal" font-weight="normal" text-decoration="none" x="0" y="330"></text><text fill="#eeeeee" stroke="none" font-family="Arial" font-size="24px" font-style="normal" font-weight="normal" text-decoration="none" x="0" y="360"></text><text fill="#eeeeee" stroke="none" font-family="Arial" font-size="24px" font-style="normal" font-weight="normal" text-decoration="none" x="200" y="0"></text><text fill="#eeeeee" stroke="none" font-family="Arial" font-size="24px" font-style="normal" font-weight="normal" text-decoration="none" x="200" y="30"></text><text fill="#eeeeee" stroke="none" font-family="Arial" font-size="24px" font-style="normal" font-weight="normal" text-decoration="none" x="200" y="60"></text><text fill="#eeeeee" stroke="none" font-family="Arial" font-size="24px" font-style="normal" font-weight="normal" text-decoration="none" x="200" y="90"></text><text fill="#eeeeee" stroke="none" font-family="Arial" font-size="24px" font-style="normal" font-weight="normal" text-decoration="none" x="200" y="120"></text><text fill="#eeeeee" stroke="none" font-family="Arial" font-size="24px" font-style="normal" font-weight="normal" text-decoration="none" x="200" y="150"></text><text fill="#eeeeee" stroke="none" font-family="Arial" font-size="24px" font-style="normal" font-weight="normal" text-decoration="none" x="200" y="180"></text><text fill="#eeeeee" stroke="none" font-family="Arial" font-size="24px" font-style="normal" font-weight="normal" text-decoration="none" x="200" y="210"></text><text fill="#eeeeee" stroke="none" font-family="Arial" font-size="24px" font-style="normal" font-weight="normal" text-decoration="none" x="200" y="240"></text><text fill="#eeeeee" stroke="none" font-family="Arial" font-size="24px" font-style="normal" font-weight="normal" text-decoration="none" x="200" y="270"></text><text fill="#eeeeee" stroke="none" font-family="Arial" font-size="24px" font-style="normal" font-weight="normal" text-decoration="none" x="200" y="300"></text><text fill="#eeeeee" stroke="none" font-family="Arial" font-size="24px" font-style="normal" font-weight="normal" text-decoration="none" x="200" y="330"></text><text fill="#eeeeee" stroke="none" font-family="Arial" font-size="24px" font-style="normal" font-weight="normal" text-decoration="none" x="200" y="360"></text><text fill="#eeeeee" stroke="none" font-family="Arial" font-size="24px" font-style="normal" font-weight="normal" text-decoration="none" x="400" y="0"></text><text fill="#eeeeee" stroke="none" font-family="Arial" font-size="24px" font-style="normal" font-weight="normal" text-decoration="none" x="400" y="30"></text><text fill="#eeeeee" stroke="none" font-family="Arial" font-size="24px" font-style="normal" font-weight="normal" text-decoration="none" x="400" y="60"></text><text fill="#eeeeee" stroke="none" font-family="Arial" font-size="24px" font-style="normal" font-weight="normal" text-decoration="none" x="400" y="90"></text><text fill="#eeeeee" stroke="none" font-family="Arial" font-size="24px" font-style="normal" font-weight="normal" text-decoration="none" x="400" y="120"></text><text fill="#eeeeee" stroke="none" font-family="Arial" font-size="24px" font-style="normal" font-weight="normal" text-decoration="none" x="400" y="150"></text><text fill="#eeeeee" stroke="none" font-family="Arial" font-size="24px" font-style="normal" font-weight="normal" text-decoration="none" x="400" y="180"></text><text fill="#eeeeee" stroke="none" font-family="Arial" font-size="24px" font-style="normal" font-weight="normal" text-decoration="none" x="400" y="210"></text><text fill="#eeeeee" stroke="none" font-family="Arial" font-size="24px" font-style="normal" font-weight="normal" text-decoration="none" x="400" y="240"></text><text fill="#eeeeee" stroke="none" font-family="Arial" font-size="24px" font-style="normal" font-weight="normal" text-decoration="none" x="400" y="270"></text><text fill="#eeeeee" stroke="none" font-family="Arial" font-size="24px" font-style="normal" font-weight="normal" text-decoration="none" x="400" y="300"></text><text fill="#eeeeee" stroke="none" font-family="Arial" font-size="24px" font-style="normal" font-weight="normal" text-decoration="none" x="400" y="330"></text><text fill="#eeeeee" stroke="none" font-family="Arial" font-size="24px" font-style="normal" font-weight="normal" text-decoration="none" x="400" y="360"></text><g transform="translate(-182,-94) scale(1,1)"><path fill="none" stroke="#000000" d="M 192 104 L 576 104 L 576 472 L 192 472 L 192 104" stroke-miterlimit="10"/></g><g transform="translate(-182,-94) scale(1,1)"><path fill="#ffffff" stroke="none" d="M 192 104 L 192 126 L 245.578125 126 L 256.578125 115 L 256.578125 104 L 192 104"/></g><g transform="translate(-182,-94) scale(1,1)"><path fill="none" stroke="#000000" d="M 192 104 L 192 126 L 245.578125 126 L 256.578125 115 L 256.578125 104 L 192 104 L 192 104" stroke-miterlimit="10"/></g><g transform="translate(-182,-94) scale(1,1)"><g><path fill="none" stroke="none"/><text fill="#000000" stroke="none" font-family="Arial" font-size="13px" font-style="normal" font-weight="normal" text-decoration="none" x="216.72998046875" y="120">dice</text></g></g><g transform="translate(-182,-94) scale(1,1)"><g><path fill="none" stroke="none"/><text fill="#000000" stroke="none" font-family="Arial" font-size="13px" font-style="normal" font-weight="bold" text-decoration="none" x="196.279541015625" y="120">sd</text></g></g><g transform="translate(-182,-94) scale(1,1)"><path fill="#ffffff" stroke="none" d="M 512 128.5 C 512 123.8055792 515.5817216 120 520 120 C 524.4182784 120 528 123.8055792 528 128.5 C 528 133.1944208 524.4182784 137 520 137 C 515.5817216 137 512 133.1944208 512 128.5 Z"/></g><g transform="translate(-182,-94) scale(1,1)"><path fill="none" stroke="#000000" d="M 512 128.5 C 512 123.8055792 515.5817216 120 520 120 C 524.4182784 120 528 123.8055792 528 128.5 C 528 133.1944208 524.4182784 137 520 137 C 515.5817216 137 512 133.1944208 512 128.5 Z" stroke-miterlimit="10"/></g><g transform="translate(-182,-94) scale(1,1)"><path fill="none" stroke="#000000" d="M 520 136 L 520 152" stroke-miterlimit="10"/></g><g transform="translate(-182,-94) scale(1,1)"><path fill="none" stroke="#000000" d="M 528 144 L 512 144" stroke-miterlimit="10"/></g><g transform="translate(-182,-94) scale(1,1)"><path fill="none" stroke="#000000" d="M 512 160 L 520 152" stroke-miterlimit="10"/></g><g transform="translate(-182,-94) scale(1,1)"><path fill="none" stroke="#000000" d="M 528 160 L 520 152" stroke-miterlimit="10"/></g><g transform="translate(-182,-94) scale(1,1)"><g><path fill="none" stroke="none"/><text fill="#000000" stroke="none" font-family="Arial" font-size="13px" font-style="normal" font-weight="normal" text-decoration="none" x="501" y="175">Player</text></g></g><g transform="translate(-182,-94) scale(1,1)"><path fill="none" stroke="#4e73be" d="M 288 176 L 288 448" stroke-miterlimit="10" stroke-dasharray="6,4"/></g><g transform="translate(-182,-94) scale(1,1)"><rect fill="#7a9de5" stroke="none" x="240" y="136" width="96" height="38"/></g><g transform="translate(-182,-94) scale(1,1)"><path fill="none" stroke="#000000" d="M 240 136 L 336 136 L 336 174 L 240 174 L 240 136 Z Z" stroke-miterlimit="10"/></g><g transform="translate(-182,-94) scale(1,1)"><g><path fill="none" stroke="none"/><text fill="#ffffff" stroke="none" font-family="Arial" font-size="15px" font-style="normal" font-weight="normal" text-decoration="none" x="255.0703125" y="158">:Capitalist</text></g></g><g transform="translate(-182,-94) scale(1,1)"><rect fill="#4e73be" stroke="none" x="280" y="192" width="16" height="224"/></g><g transform="translate(-182,-94) scale(1,1)"><path fill="none" stroke="#000000" d="M 280 192 L 296 192 L 296 416 L 280 416 L 280 192 Z Z" stroke-miterlimit="10"/></g><g transform="translate(-182,-94) scale(1,1)"><rect fill="#4e73be" stroke="none" x="512" y="208" width="16" height="48"/></g><g transform="translate(-182,-94) scale(1,1)"><path fill="none" stroke="#000000" d="M 512 208 L 528 208 L 528 256 L 512 256 L 512 208 Z Z" stroke-miterlimit="10"/></g><g transform="translate(-182,-94) scale(1,1)"><path fill="none" stroke="#4e73be" d="M 520 184 L 520 448" stroke-miterlimit="10" stroke-dasharray="6,4"/></g><g transform="translate(-182,-94) scale(1,1)"><path fill="none" stroke="#000000" d="M 512 216 L 296 216" stroke-miterlimit="10"/></g><g transform="translate(-182,-94) scale(1,1)"><path fill="#000000" stroke="none" d="M 501.83732514237585 220.209517756016 L 512 216 L 501.83732514237585 211.790482243984"/></g><g transform="translate(-182,-94) scale(1,1)"><path fill="none" stroke="#000000" d="M 501.83732514237585 220.209517756016 L 512 216 L 501.83732514237585 211.790482243984 L 501.83732514237585 220.209517756016" stroke-miterlimit="10"/></g><g transform="translate(-182,-94) scale(1,1)"><g><path fill="none" stroke="none"/><text fill="#000000" stroke="none" font-family="Arial" font-size="13px" font-style="normal" font-weight="normal" text-decoration="none" x="357" y="207">launchDice()</text></g></g><g transform="translate(-182,-94) scale(1,1)"><path fill="none" stroke="#000000" d="M 512 248 L 296 248" stroke-miterlimit="10" stroke-dasharray="6,4"/></g><g transform="translate(-182,-94) scale(1,1)"><path fill="none" stroke="#000000" d="M 306.16267485762415 243.790482243984 L 296 248 L 306.16267485762415 252.209517756016" stroke-miterlimit="10"/></g><g transform="translate(-182,-94) scale(1,1)"><g><path fill="none" stroke="none"/><text fill="#000000" stroke="none" font-family="Arial" font-size="13px" font-style="normal" font-weight="normal" text-decoration="none" x="373" y="239">value</text></g></g><g transform="translate(-182,-94) scale(1,1)"><path fill="none" stroke="#000000" d="M 296 280 L 328 280 L 328 320 L 296 320" stroke-miterlimit="10"/></g><g transform="translate(-182,-94) scale(1,1)"><path fill="#000000" stroke="none" d="M 306.16267485762415 315.790482243984 L 296 320 L 306.16267485762415 324.209517756016"/></g><g transform="translate(-182,-94) scale(1,1)"><path fill="none" stroke="#000000" d="M 306.16267485762415 315.790482243984 L 296 320 L 306.16267485762415 324.209517756016 L 306.16267485762415 315.790482243984" stroke-miterlimit="10"/></g><g transform="translate(-182,-94) scale(1,1)"><g><path fill="none" stroke="none"/><text fill="#000000" stroke="none" font-family="Arial" font-size="13px" font-style="normal" font-weight="normal" text-decoration="none" x="333" y="303">movePlayer()</text></g></g><g transform="translate(-182,-94) scale(1,1)"><path fill="none" stroke="#000000" d="M 296 368 L 512 368" stroke-miterlimit="10"/></g><g transform="translate(-182,-94) scale(1,1)"><path fill="#000000" stroke="none" d="M 501.83732514237585 372.209517756016 L 512 368 L 501.83732514237585 363.790482243984"/></g><g transform="translate(-182,-94) scale(1,1)"><path fill="none" stroke="#000000" d="M 501.83732514237585 372.209517756016 L 512 368 L 501.83732514237585 363.790482243984 L 501.83732514237585 372.209517756016" stroke-miterlimit="10"/></g><g transform="translate(-182,-94) scale(1,1)"><rect fill="#4e73be" stroke="none" x="512" y="360" width="16" height="48"/></g><g transform="translate(-182,-94) scale(1,1)"><path fill="none" stroke="#000000" d="M 512 360 L 528 360 L 528 408 L 512 408 L 512 360 Z Z" stroke-miterlimit="10"/></g><g transform="translate(-182,-94) scale(1,1)"><g><path fill="none" stroke="none"/><text fill="#000000" stroke="none" font-family="Arial" font-size="13px" font-style="normal" font-weight="normal" text-decoration="none" x="357" y="359">cellAction()</text></g></g><g transform="translate(-182,-94) scale(1,1)"><path fill="none" stroke="#000000" d="M 512 400 L 296 400" stroke-miterlimit="10" stroke-dasharray="6,4"/></g><g transform="translate(-182,-94) scale(1,1)"><path fill="none" stroke="#000000" d="M 306.16267485762415 395.790482243984 L 296 400 L 306.16267485762415 404.209517756016" stroke-miterlimit="10"/></g><g transform="translate(-182,-94) scale(1,1)"><g><path fill="none" stroke="none"/><text fill="#000000" stroke="none" font-family="Arial" font-size="13px" font-style="normal" font-weight="normal" text-decoration="none" x="365" y="391">action</text></g></g></g></svg>