<svg version="1.1" xmlns="http://www.w3.org/2000/svg" xmlns:xlink="http://www.w3.org/1999/xlink" width="1124" height="588"><defs/><g><text fill="#eeeeee" stroke="none" font-family="Arial" font-size="24px" font-style="normal" font-weight="normal" text-decoration="none" x="0" y="0"></text><text fill="#eeeeee" stroke="none" font-family="Arial" font-size="24px" font-style="normal" font-weight="normal" text-decoration="none" x="0" y="30"></text><text fill="#eeeeee" stroke="none" font-family="Arial" font-size="24px" font-style="normal" font-weight="normal" text-decoration="none" x="0" y="60"></text><text fill="#eeeeee" stroke="none" font-family="Arial" font-size="24px" font-style="normal" font-weight="normal" text-decoration="none" x="0" y="90"></text><text fill="#eeeeee" stroke="none" font-family="Arial" font-size="24px" font-style="normal" font-weight="normal" text-decoration="none" x="0" y="120"></text><text fill="#eeeeee" stroke="none" font-family="Arial" font-size="24px" font-style="normal" font-weight="normal" text-decoration="none" x="0" y="150"></text><text fill="#eeeeee" stroke="none" font-family="Arial" font-size="24px" font-style="normal" font-weight="normal" text-decoration="none" x="0" y="180"></text><text fill="#eeeeee" stroke="none" font-family="Arial" font-size="24px" font-style="normal" font-weight="normal" text-decoration="none" x="0" y="210"></text><text fill="#eeeeee" stroke="none" font-family="Arial" font-size="24px" font-style="normal" font-weight="normal" text-decoration="none" x="0" y="240"></text><text fill="#eeeeee" stroke="none" font-family="Arial" font-size="24px" font-style="normal" font-weight="normal" text-decoration="none" x="0" y="270"></text><text fill="#eeeeee" stroke="none" font-family="Arial" font-size="24px" font-style="normal" font-weight="normal" text-decoration="none" x="0" y="300"></text><text fill="#eeeeee" stroke="none" font-family="Arial" font-size="24px" font-style="normal" font-weight="normal" text-decoration="none" x="0" y="330"></text><text fill="#eeeeee" stroke="none" font-family="Arial" font-size="24px" font-style="normal" font-weight="normal" text-decoration="none" x="0" y="360"></text><text fill="#eeeeee" stroke="none" font-family="Arial" font-size="24px" font-style="normal" font-weight="normal" text-decoration="none" x="0" y="390"></text><text fill="#eeeeee" stroke="none" font-family="Arial" font-size="24px" font-style="normal" font-weight="normal" text-decoration="none" x="0" y="420"></text><text fill="#eeeeee" stroke="none" font-family="Arial" font-size="24px" font-style="normal" font-weight="normal" text-decoration="none" x="0" y="450"></text><text fill="#eeeeee" stroke="none" font-family="Arial" font-size="24px" font-style="normal" font-weight="normal" text-decoration="none" x="0" y="480"></text><text fill="#eeeeee" stroke="none" font-family="Arial" font-size="24px" font-style="normal" font-weight="normal" text-decoration="none" x="0" y="510"></text><text fill="#eeeeee" stroke="none" font-family="Arial" font-size="24px" font-style="normal" font-weight="normal" text-decoration="none" x="0" y="540"></text><text fill="#eeeeee" stroke="none" font-family="Arial" font-size="24px" font-style="normal" font-weight="normal" text-decoration="none" x="0" y="570"></text><text fill="#eeeeee" stroke="none" font-family="Arial" font-size="24px" font-style="normal" font-weight="normal" text-decoration="none" x="200" y="0"></text><text fill="#eeeeee" stroke="none" font-family="Arial" font-size="24px" font-style="normal" font-weight="normal" text-decoration="none" x="200" y="30"></text><text fill="#eeeeee" stroke="none" font-family="Arial" font-size="24px" font-style="normal" font-weight="normal" text-decoration="none" x="200" y="60"></text><text fill="#eeeeee" stroke="none" font-family="Arial" font-size="24px" font-style="normal" font-weight="normal" text-decoration="none" x="200" y="90"></text><text fill="#eeeeee" stroke="none" font-family="Arial" font-size="24px" font-style="normal" font-weight="normal" text-decoration="none" x="200" y="120"></text><text fill="#eeeeee" stroke="none" font-family="Arial" font-size="24px" font-style="normal" font-weight="normal" text-decoration="none" x="200" y="150"></text><text fill="#eeeeee" stroke="none" font-family="Arial" font-size="24px" font-style="normal" font-weight="normal" text-decoration="none" x="200" y="180"></text><text fill="#eeeeee" stroke="none" font-family="Arial" font-size="24px" font-style="normal" font-weight="normal" text-decoration="none" x="200" y="210"></text><text fill="#eeeeee" stroke="none" font-family="Arial" font-size="24px" font-style="normal" font-weight="normal" text-decoration="none" x="200" y="240"></text><text fill="#eeeeee" stroke="none" font-family="Arial" font-size="24px" font-style="normal" font-weight="normal" text-decoration="none" x="200" y="270"></text><text fill="#eeeeee" stroke="none" font-family="Arial" font-size="24px" font-style="normal" font-weight="normal" text-decoration="none" x="200" y="300"></text><text fill="#eeeeee" stroke="none" font-family="Arial" font-size="24px" font-style="normal" font-weight="normal" text-decoration="none" x="200" y="330"></text><text fill="#eeeeee" stroke="none" font-family="Arial" font-size="24px" font-style="normal" font-weight="normal" text-decoration="none" x="200" y="360"></text><text fill="#eeeeee" stroke="none" font-family="Arial" font-size="24px" font-style="normal" font-weight="normal" text-decoration="none" x="200" y="390"></text><text fill="#eeeeee" stroke="none" font-family="Arial" font-size="24px" font-style="normal" font-weight="normal" text-decoration="none" x="200" y="420"></text><text fill="#eeeeee" stroke="none" font-family="Arial" font-size="24px" font-style="normal" font-weight="normal" text-decoration="none" x="200" y="450"></text><text fill="#eeeeee" stroke="none" font-family="Arial" font-size="24px" font-style="normal" font-weight="normal" text-decoration="none" x="200" y="480"></text><text fill="#eeeeee" stroke="none" font-family="Arial" font-size="24px" font-style="normal" font-weight="normal" text-decoration="none" x="200" y="510"></text><text fill="#eeeeee" stroke="none" font-family="Arial" font-size="24px" font-style="normal" font-weight="normal" text-decoration="none" x="200" y="540"></text><text fill="#eeeeee" stroke="none" font-family="Arial" font-size="24px" font-style="normal" font-weight="normal" text-decoration="none" x="200" y="570"></text><text fill="#eeeeee" stroke="none" font-family="Arial" font-size="24px" font-style="normal" font-weight="normal" text-decoration="none" x="400" y="0"></text><text fill="#eeeeee" stroke="none" font-family="Arial" font-size="24px" font-style="normal" font-weight="normal" text-decoration="none" x="400" y="30"></text><text fill="#eeeeee" stroke="none" font-family="Arial" font-size="24px" font-style="normal" font-weight="normal" text-decoration="none" x="400" y="60"></text><text fill="#eeeeee" stroke="none" font-family="Arial" font-size="24px" font-style="normal" font-weight="normal" text-decoration="none" x="400" y="90"></text><text fill="#eeeeee" stroke="none" font-family="Arial" font-size="24px" font-style="normal" font-weight="normal" text-decoration="none" x="400" y="120"></text><text fill="#eeeeee" stroke="none" font-family="Arial" font-size="24px" font-style="normal" font-weight="normal" text-decoration="none" x="400" y="150"></text><text fill="#eeeeee" stroke="none" font-family="Arial" font-size="24px" font-style="normal" font-weight="normal" text-decoration="none" x="400" y="180"></text><text fill="#eeeeee" stroke="none" font-family="Arial" font-size="24px" font-style="normal" font-weight="normal" text-decoration="none" x="400" y="210"></text><text fill="#eeeeee" stroke="none" font-family="Arial" font-size="24px" font-style="normal" font-weight="normal" text-decoration="none" x="400" y="240"></text><text fill="#eeeeee" stroke="none" font-family="Arial" font-size="24px" font-style="normal" font-weight="normal" text-decoration="none" x="400" y="270"></text><text fill="#eeeeee" stroke="none" font-family="Arial" font-size="24px" font-style="normal" font-weight="normal" text-decoration="none" x="400" y="300"></text><text fill="#eeeeee" stroke="none" font-family="Arial" font-size="24px" font-style="normal" font-weight="normal" text-decoration="none" x="400" y="330"></text><text fill="#eeeeee" stroke="none" font-family="Arial" font-size="24px" font-style="normal" font-weight="normal" text-decoration="none" x="400" y="360"></text><text fill="#eeeeee" stroke="none" font-family="Arial" font-size="24px" font-style="normal" font-weight="normal" text-decoration="none" x="400" y="390"></text><text fill="#eeeeee" stroke="none" font-family="Arial" font-size="24px" font-style="normal" font-weight="normal" text-decoration="none" x="400" y="420"></text><text fill="#eeeeee" stroke="none" font-family="Arial" font-size="24px" font-style="normal" font-weight="normal" text-decoration="none" x="400" y="450"></text><text fill="#eeeeee" stroke="none" font-family="Arial" font-size="24px" font-style="normal" font-weight="normal" text-decoration="none" x="400" y="480"></text><text fill="#eeeeee" stroke="none" font-family="Arial" font-size="24px" font-style="normal" font-weight="normal" text-decoration="none" x="400" y="510"></text><text fill="#eeeeee" stroke="none" font-family="Arial" font-size="24px" font-style="normal" font-weight="normal" text-decoration="none" x="400" y="540"></text><text fill="#eeeeee" stroke="none" font-family="Arial" font-size="24px" font-style="normal" font-weight="normal" text-decoration="none" x="400" y="570"></text><text fill="#eeeeee" stroke="none" font-family="Arial" font-size="24px" font-style="normal" font-weight="normal" text-decoration="none" x="600" y="0"></text><text fill="#eeeeee" stroke="none" font-family="Arial" font-size="24px" font-style="normal" font-weight="normal" text-decoration="none" x="600" y="30"></text><text fill="#eeeeee" stroke="none" font-family="Arial" font-size="24px" font-style="normal" font-weight="normal" text-decoration="none" x="600" y="60"></text><text fill="#eeeeee" stroke="none" font-family="Arial" font-size="24px" font-style="normal" font-weight="normal" text-decoration="none" x="600" y="90"></text><text fill="#eeeeee" stroke="none" font-family="Arial" font-size="24px" font-style="normal" font-weight="normal" text-decoration="none" x="600" y="120"></text><text fill="#eeeeee" stroke="none" font-family="Arial" font-size="24px" font-style="normal" font-weight="normal" text-decoration="none" x="600" y="150"></text><text fill="#eeeeee" stroke="none" font-family="Arial" font-size="24px" font-style="normal" font-weight="normal" text-decoration="none" x="600" y="180"></text><text fill="#eeeeee" stroke="none" font-family="Arial" font-size="24px" font-style="normal" font-weight="normal" text-decoration="none" x="600" y="210"></text><text fill="#eeeeee" stroke="none" font-family="Arial" font-size="24px" font-style="normal" font-weight="normal" text-decoration="none" x="600" y="240"></text><text fill="#eeeeee" stroke="none" font-family="Arial" font-size="24px" font-style="normal" font-weight="normal" text-decoration="none" x="600" y="270"></text><text fill="#eeeeee" stroke="none" font-family="Arial" font-size="24px" font-style="normal" font-weight="normal" text-decoration="none" x="600" y="300"></text><text fill="#eeeeee" stroke="none" font-family="Arial" font-size="24px" font-style="normal" font-weight="normal" text-decoration="none" x="600" y="330"></text><text fill="#eeeeee" stroke="none" font-family="Arial" font-size="24px" font-style="normal" font-weight="normal" text-decoration="none" x="600" y="360"></text><text fill="#eeeeee" stroke="none" font-family="Arial" font-size="24px" font-style="normal" font-weight="normal" text-decoration="none" x="600" y="390"></text><text fill="#eeeeee" stroke="none" font-family="Arial" font-size="24px" font-style="normal" font-weight="normal" text-decoration="none" x="600" y="420"></text><text fill="#eeeeee" stroke="none" font-family="Arial" font-size="24px" font-style="normal" font-weight="normal" text-decoration="none" x="600" y="450"></text><text fill="#eeeeee" stroke="none" font-family="Arial" font-size="24px" font-style="normal" font-weight="normal" text-decoration="none" x="600" y="480"></text><text fill="#eeeeee" stroke="none" font-family="Arial" font-size="24px" font-style="normal" font-weight="normal" text-decoration="none" x="600" y="510"></text><text fill="#eeeeee" stroke="none" font-family="Arial" font-size="24px" font-style="normal" font-weight="normal" text-decoration="none" x="600" y="540"></text><text fill="#eeeeee" stroke="none" font-family="Arial" font-size="24px" font-style="normal" font-weight="normal" text-decoration="none" x="600" y="570"></text><text fill="#eeeeee" stroke="none" font-family="Arial" font-size="24px" font-style="normal" font-weight="normal" text-decoration="none" x="800" y="0"></text><text fill="#eeeeee" stroke="none" font-family="Arial" font-size="24px" font-style="normal" font-weight="normal" text-decoration="none" x="800" y="30"></text><text fill="#eeeeee" stroke="none" font-family="Arial" font-size="24px" font-style="normal" font-weight="normal" text-decoration="none" x="800" y="60"></text><text fill="#eeeeee" stroke="none" font-family="Arial" font-size="24px" font-style="normal" font-weight="normal" text-decoration="none" x="800" y="90"></text><text fill="#eeeeee" stroke="none" font-family="Arial" font-size="24px" font-style="normal" font-weight="normal" text-decoration="none" x="800" y="120"></text><text fill="#eeeeee" stroke="none" font-family="Arial" font-size="24px" font-style="normal" font-weight="normal" text-decoration="none" x="800" y="150"></text><text fill="#eeeeee" stroke="none" font-family="Arial" font-size="24px" font-style="normal" font-weight="normal" text-decoration="none" x="800" y="180"></text><text fill="#eeeeee" stroke="none" font-family="Arial" font-size="24px" font-style="normal" font-weight="normal" text-decoration="none" x="800" y="210"></text><text fill="#eeeeee" stroke="none" font-family="Arial" font-size="24px" font-style="normal" font-weight="normal" text-decoration="none" x="800" y="240"></text><text fill="#eeeeee" stroke="none" font-family="Arial" font-size="24px" font-style="normal" font-weight="normal" text-decoration="none" x="800" y="270"></text><text fill="#eeeeee" stroke="none" font-family="Arial" font-size="24px" font-style="normal" font-weight="normal" text-decoration="none" x="800" y="300"></text><text fill="#eeeeee" stroke="none" font-family="Arial" font-size="24px" font-style="normal" font-weight="normal" text-decoration="none" x="800" y="330"></text><text fill="#eeeeee" stroke="none" font-family="Arial" font-size="24px" font-style="normal" font-weight="normal" text-decoration="none" x="800" y="360"></text><text fill="#eeeeee" stroke="none" font-family="Arial" font-size="24px" font-style="normal" font-weight="normal" text-decoration="none" x="800" y="390"></text><text fill="#eeeeee" stroke="none" font-family="Arial" font-size="24px" font-style="normal" font-weight="normal" text-decoration="none" x="800" y="420"></text><text fill="#eeeeee" stroke="none" font-family="Arial" font-size="24px" font-style="normal" font-weight="normal" text-decoration="none" x="800" y="450"></text><text fill="#eeeeee" stroke="none" font-family="Arial" font-size="24px" font-style="normal" font-weight="normal" text-decoration="none" x="800" y="480"></text><text fill="#eeeeee" stroke="none" font-family="Arial" font-size="24px" font-style="normal" font-weight="normal" text-decoration="none" x="800" y="510"></text><text fill="#eeeeee" stroke="none" font-family="Arial" font-size="24px" font-style="normal" font-weight="normal" text-decoration="none" x="800" y="540"></text><text fill="#eeeeee" stroke="none" font-family="Arial" font-size="24px" font-style="normal" font-weight="normal" text-decoration="none" x="800" y="570"></text><text fill="#eeeeee" stroke="none" font-family="Arial" font-size="24px" font-style="normal" font-weight="normal" text-decoration="none" x="1000" y="0"></text><text fill="#eeeeee" stroke="none" font-family="Arial" font-size="24px" font-style="normal" font-weight="normal" text-decoration="none" x="1000" y="30"></text><text fill="#eeeeee" stroke="none" font-family="Arial" font-size="24px" font-style="normal" font-weight="normal" text-decoration="none" x="1000" y="60"></text><text fill="#eeeeee" stroke="none" font-family="Arial" font-size="24px" font-style="normal" font-weight="normal" text-decoration="none" x="1000" y="90"></text><text fill="#eeeeee" stroke="none" font-family="Arial" font-size="24px" font-style="normal" font-weight="normal" text-decoration="none" x="1000" y="120"></text><text fill="#eeeeee" stroke="none" font-family="Arial" font-size="24px" font-style="normal" font-weight="normal" text-decoration="none" x="1000" y="150"></text><text fill="#eeeeee" stroke="none" font-family="Arial" font-size="24px" font-style="normal" font-weight="normal" text-decoration="none" x="1000" y="180"></text><text fill="#eeeeee" stroke="none" font-family="Arial" font-size="24px" font-style="normal" font-weight="normal" text-decoration="none" x="1000" y="210"></text><text fill="#eeeeee" stroke="none" font-family="Arial" font-size="24px" font-style="normal" font-weight="normal" text-decoration="none" x="1000" y="240"></text><text fill="#eeeeee" stroke="none" font-family="Arial" font-size="24px" font-style="normal" font-weight="normal" text-decoration="none" x="1000" y="270"></text><text fill="#eeeeee" stroke="none" font-family="Arial" font-size="24px" font-style="normal" font-weight="normal" text-decoration="none" x="1000" y="300"></text><text fill="#eeeeee" stroke="none" font-family="Arial" font-size="24px" font-style="normal" font-weight="normal" text-decoration="none" x="1000" y="330"></text><text fill="#eeeeee" stroke="none" font-family="Arial" font-size="24px" font-style="normal" font-weight="normal" text-decoration="none" x="1000" y="360"></text><text fill="#eeeeee" stroke="none" font-family="Arial" font-size="24px" font-style="normal" font-weight="normal" text-decoration="none" x="1000" y="390"></text><text fill="#eeeeee" stroke="none" font-family="Arial" font-size="24px" font-style="normal" font-weight="normal" text-decoration="none" x="1000" y="420"></text><text fill="#eeeeee" stroke="none" font-family="Arial" font-size="24px" font-style="normal" font-weight="normal" text-decoration="none" x="1000" y="450"></text><text fill="#eeeeee" stroke="none" font-family="Arial" font-size="24px" font-style="normal" font-weight="normal" text-decoration="none" x="1000" y="480"></text><text fill="#eeeeee" stroke="none" font-family="Arial" font-size="24px" font-style="normal" font-weight="normal" text-decoration="none" x="1000" y="510"></text><text fill="#eeeeee" stroke="none" font-family="Arial" font-size="24px" font-style="normal" font-weight="normal" text-decoration="none" x="1000" y="540"></text><text fill="#eeeeee" stroke="none" font-family="Arial" font-size="24px" font-style="normal" font-weight="normal" text-decoration="none" x="1000" y="570"></text><g transform="translate(-30,-926) scale(1,1)"><path fill="none" stroke="#4e73be" d="M 256 1224 L 1144 1224 L 1144 1504 L 256 1504 L 256 1224" stroke-miterlimit="10"/></g><g transform="translate(-30,-926) scale(1,1)"><path fill="#ffffff" stroke="none" d="M 256 1224 L 256 1246 L 360.892578125 1246 L 371.892578125 1235 L 371.892578125 1224 L 256 1224"/></g><g transform="translate(-30,-926) scale(1,1)"><path fill="none" stroke="#4e73be" d="M 256 1224 L 256 1246 L 360.892578125 1246 L 371.892578125 1235 L 371.892578125 1224 L 256 1224 L 256 1224" stroke-miterlimit="10"/></g><g transform="translate(-30,-926) scale(1,1)"><g><path fill="none" stroke="none"/><text fill="#4e73be" stroke="none" font-family="Arial" font-size="13px" font-style="normal" font-weight="normal" text-decoration="none" x="267" y="1240">not recognized </text></g></g><g transform="translate(-30,-926) scale(1,1)"><g><path fill="none" stroke="none"/><text fill="#4e73be" stroke="none" font-family="Arial" font-size="13px" font-style="normal" font-weight="bold" text-decoration="none" x="261" y="1235"></text></g></g><g transform="translate(-30,-926) scale(1,1)"><rect fill="#7a9de5" stroke="none" x="40" y="936" width="96" height="38"/></g><g transform="translate(-30,-926) scale(1,1)"><path fill="none" stroke="#000000" d="M 40 936 L 136 936 L 136 974 L 40 974 L 40 936 Z Z" stroke-miterlimit="10"/></g><g transform="translate(-30,-926) scale(1,1)"><g><path fill="none" stroke="none"/><text fill="#ffffff" stroke="none" font-family="Arial" font-size="15px" font-style="normal" font-weight="normal" text-decoration="none" x="72.1650390625" y="958">User</text></g></g><g transform="translate(-30,-926) scale(1,1)"><rect fill="#4e73be" stroke="none" x="80" y="1008" width="16" height="424"/></g><g transform="translate(-30,-926) scale(1,1)"><path fill="none" stroke="#000000" d="M 80 1008 L 96 1008 L 96 1432 L 80 1432 L 80 1008 Z Z" stroke-miterlimit="10"/></g><g transform="translate(-30,-926) scale(1,1)"><path fill="none" stroke="#000000" d="M 88 976 L 88 976" stroke-miterlimit="10"/></g><g transform="translate(-30,-926) scale(1,1)"><path fill="none" stroke="#4e73be" d="M 88 976 L 88 1488" stroke-miterlimit="10" stroke-dasharray="6,4"/></g><g transform="translate(-30,-926) scale(1,1)"><rect fill="#7a9de5" stroke="none" x="328" y="936" width="128" height="38"/></g><g transform="translate(-30,-926) scale(1,1)"><path fill="none" stroke="#000000" d="M 328 936 L 456 936 L 456 974 L 328 974 L 328 936 Z Z" stroke-miterlimit="10"/></g><g transform="translate(-30,-926) scale(1,1)"><g><path fill="none" stroke="none"/><text fill="#ffffff" stroke="none" font-family="Arial" font-size="15px" font-style="normal" font-weight="normal" text-decoration="none" x="341.13330078125" y="958">SignInManager</text></g></g><g transform="translate(-30,-926) scale(1,1)"><rect fill="#4e73be" stroke="none" x="384" y="1008" width="16" height="424"/></g><g transform="translate(-30,-926) scale(1,1)"><path fill="none" stroke="#000000" d="M 384 1008 L 400 1008 L 400 1432 L 384 1432 L 384 1008 Z Z" stroke-miterlimit="10"/></g><g transform="translate(-30,-926) scale(1,1)"><path fill="none" stroke="#4e73be" d="M 392 976 L 392 1480" stroke-miterlimit="10" stroke-dasharray="6,4"/></g><g transform="translate(-30,-926) scale(1,1)"><rect fill="#7a9de5" stroke="none" x="664" y="936" width="112" height="38"/></g><g transform="translate(-30,-926) scale(1,1)"><path fill="none" stroke="#000000" d="M 664 936 L 776 936 L 776 974 L 664 974 L 664 936 Z Z" stroke-miterlimit="10"/></g><g transform="translate(-30,-926) scale(1,1)"><g><path fill="none" stroke="none"/><text fill="#ffffff" stroke="none" font-family="Arial" font-size="15px" font-style="normal" font-weight="normal" text-decoration="none" x="687.894287109375" y="958">Database</text></g></g><g transform="translate(-30,-926) scale(1,1)"><rect fill="#4e73be" stroke="none" x="712" y="1008" width="16" height="424"/></g><g transform="translate(-30,-926) scale(1,1)"><path fill="none" stroke="#000000" d="M 712 1008 L 728 1008 L 728 1432 L 712 1432 L 712 1008 Z Z" stroke-miterlimit="10"/></g><g transform="translate(-30,-926) scale(1,1)"><path fill="none" stroke="#4e73be" d="M 720 976 L 720 1480" stroke-miterlimit="10" stroke-dasharray="6,4"/></g><g transform="translate(-30,-926) scale(1,1)"><path fill="none" stroke="#000000" d="M 96 1048 L 384 1050" stroke-miterlimit="10"/></g><g transform="translate(-30,-926) scale(1,1)"><path fill="#000000" stroke="none" d="M 373.80833812523827 1054.138843827753 L 384 1050 L 373.8668022399194 1045.7200113136719"/></g><g transform="translate(-30,-926) scale(1,1)"><path fill="none" stroke="#000000" d="M 373.80833812523827 1054.138843827753 L 384 1050 L 373.8668022399194 1045.7200113136719 L 373.80833812523827 1054.138843827753" stroke-miterlimit="10"/></g><g transform="translate(-30,-926) scale(1,1)"><g><path fill="none" stroke="none"/><text fill="#000000" stroke="none" font-family="Arial" font-size="13px" font-style="normal" font-weight="normal" text-decoration="none" x="117" y="1039">signInRequest(username, password)</text></g></g><g transform="translate(-30,-926) scale(1,1)"><path fill="none" stroke="#000000" d="M 400 1048 L 432 1048" stroke-miterlimit="10"/></g><g transform="translate(-30,-926) scale(1,1)"><path fill="none" stroke="#000000" d="M 432 1048 L 432 1080" stroke-miterlimit="10"/></g><g transform="translate(-30,-926) scale(1,1)"><path fill="none" stroke="#000000" d="M 432 1080 L 400 1080" stroke-miterlimit="10"/></g><g transform="translate(-30,-926) scale(1,1)"><path fill="#000000" stroke="none" d="M 410.16267485762415 1075.7904822439841 L 400 1080 L 410.16267485762415 1084.2095177560159"/></g><g transform="translate(-30,-926) scale(1,1)"><path fill="none" stroke="#000000" d="M 410.16267485762415 1075.7904822439841 L 400 1080 L 410.16267485762415 1084.2095177560159 L 410.16267485762415 1075.7904822439841" stroke-miterlimit="10"/></g><g transform="translate(-30,-926) scale(1,1)"><g><path fill="none" stroke="none"/><text fill="#000000" stroke="none" font-family="Arial" font-size="13px" font-style="normal" font-weight="normal" text-decoration="none" x="445" y="1071">checkValidity()</text></g></g><g transform="translate(-30,-926) scale(1,1)"><path fill="none" stroke="#4e73be" d="M 400 1296 L 712 1296" stroke-miterlimit="10"/></g><g transform="translate(-30,-926) scale(1,1)"><path fill="#4e73be" stroke="none" d="M 701.8373251423759 1300.2095177560159 L 712 1296 L 701.8373251423758 1291.7904822439841"/></g><g transform="translate(-30,-926) scale(1,1)"><path fill="none" stroke="#4e73be" d="M 701.8373251423759 1300.2095177560159 L 712 1296 L 701.8373251423758 1291.7904822439841 L 701.8373251423759 1300.2095177560159" stroke-miterlimit="10"/></g><g transform="translate(-30,-926) scale(1,1)"><g><path fill="none" stroke="none"/><text fill="#4e73be" stroke="none" font-family="Arial" font-size="13px" font-style="normal" font-weight="normal" text-decoration="none" x="429" y="1287">insert(id, username, password)</text></g></g><g transform="translate(-30,-926) scale(1,1)"><path fill="none" stroke="#000000" d="M 384 1112 L 96 1112" stroke-miterlimit="10" stroke-dasharray="6,4"/></g><g transform="translate(-30,-926) scale(1,1)"><path fill="#000000" stroke="none" d="M 106.16267485762415 1107.7904822439841 L 96 1112 L 106.16267485762415 1116.2095177560159"/></g><g transform="translate(-30,-926) scale(1,1)"><path fill="none" stroke="#000000" d="M 106.16267485762415 1107.7904822439841 L 96 1112 L 106.16267485762415 1116.2095177560159 L 106.16267485762415 1107.7904822439841" stroke-miterlimit="10"/></g><g transform="translate(-30,-926) scale(1,1)"><g><path fill="none" stroke="none"/><text fill="#000000" stroke="none" font-family="Arial" font-size="13px" font-style="normal" font-weight="normal" text-decoration="none" x="117" y="1103">[validity= false] Invalid input</text></g></g><g transform="translate(-30,-926) scale(1,1)"><rect fill="#7a9de5" stroke="none" x="976" y="936" width="96" height="38"/></g><g transform="translate(-30,-926) scale(1,1)"><path fill="none" stroke="#000000" d="M 976 936 L 1072 936 L 1072 974 L 976 974 L 976 936 Z Z" stroke-miterlimit="10"/></g><g transform="translate(-30,-926) scale(1,1)"><g><path fill="none" stroke="none"/><text fill="#ffffff" stroke="none" font-family="Arial" font-size="16px" font-style="normal" font-weight="normal" text-decoration="none" x="980.875" y="959">GameRoom</text></g></g><g transform="translate(-30,-926) scale(1,1)"><rect fill="#4e73be" stroke="none" x="1016" y="1008" width="16" height="424"/></g><g transform="translate(-30,-926) scale(1,1)"><path fill="none" stroke="#000000" d="M 1016 1008 L 1032 1008 L 1032 1432 L 1016 1432 L 1016 1008 Z Z" stroke-miterlimit="10"/></g><g transform="translate(-30,-926) scale(1,1)"><path fill="none" stroke="#4e73be" d="M 1024 976 L 1024 1480" stroke-miterlimit="10" stroke-dasharray="6,4"/></g><g transform="translate(-30,-926) scale(1,1)"><path fill="none" stroke="#000000" d="M 400 1112 L 712 1112" stroke-miterlimit="10"/></g><g transform="translate(-30,-926) scale(1,1)"><path fill="#000000" stroke="none" d="M 701.8373251423759 1116.2095177560159 L 712 1112 L 701.8373251423758 1107.7904822439841"/></g><g transform="translate(-30,-926) scale(1,1)"><path fill="none" stroke="#000000" d="M 701.8373251423759 1116.2095177560159 L 712 1112 L 701.8373251423758 1107.7904822439841 L 701.8373251423759 1116.2095177560159" stroke-miterlimit="10"/></g><g transform="translate(-30,-926) scale(1,1)"><g><path fill="none" stroke="none"/><text fill="#000000" stroke="none" font-family="Arial" font-size="13px" font-style="normal" font-weight="normal" text-decoration="none" x="405" y="1103">[validity = true] search(username, password)</text></g></g><g transform="translate(-30,-926) scale(1,1)"><path fill="none" stroke="#000000" d="M 712 1152 L 400 1152" stroke-miterlimit="10" stroke-dasharray="6,4"/></g><g transform="translate(-30,-926) scale(1,1)"><path fill="#000000" stroke="none" d="M 410.16267485762415 1147.7904822439841 L 400 1152 L 410.16267485762415 1156.2095177560159"/></g><g transform="translate(-30,-926) scale(1,1)"><path fill="none" stroke="#000000" d="M 410.16267485762415 1147.7904822439841 L 400 1152 L 410.16267485762415 1156.2095177560159 L 410.16267485762415 1147.7904822439841" stroke-miterlimit="10"/></g><g transform="translate(-30,-926) scale(1,1)"><path fill="none" stroke="#000000" d="M 712 1152 L 688 1184 L 400 1184" stroke-miterlimit="10" stroke-dasharray="6,4"/></g><g transform="translate(-30,-926) scale(1,1)"><path fill="#000000" stroke="none" d="M 410.16267485762415 1179.7904822439841 L 400 1184 L 410.16267485762415 1188.2095177560159"/></g><g transform="translate(-30,-926) scale(1,1)"><path fill="none" stroke="#000000" d="M 410.16267485762415 1179.7904822439841 L 400 1184 L 410.16267485762415 1188.2095177560159 L 410.16267485762415 1179.7904822439841" stroke-miterlimit="10"/></g><g transform="translate(-30,-926) scale(1,1)"><g><path fill="none" stroke="none"/><text fill="#000000" stroke="none" font-family="Arial" font-size="13px" font-style="normal" font-weight="normal" text-decoration="none" x="429" y="1143">[recognized = true] username are already used</text></g></g><g transform="translate(-30,-926) scale(1,1)"><g><path fill="none" stroke="none"/><text fill="#000000" stroke="none" font-family="Arial" font-size="13px" font-style="normal" font-weight="normal" text-decoration="none" x="429" y="1175">[recognized = true] Invalid password</text></g></g><g transform="translate(-30,-926) scale(1,1)"><path fill="none" stroke="#000000" d="M 384 1152 L 96 1152" stroke-miterlimit="10" stroke-dasharray="6,4"/></g><g transform="translate(-30,-926) scale(1,1)"><path fill="#000000" stroke="none" d="M 106.16267485762415 1147.7904822439841 L 96 1152 L 106.16267485762415 1156.2095177560159"/></g><g transform="translate(-30,-926) scale(1,1)"><path fill="none" stroke="#000000" d="M 106.16267485762415 1147.7904822439841 L 96 1152 L 106.16267485762415 1156.2095177560159 L 106.16267485762415 1147.7904822439841" stroke-miterlimit="10"/></g><g transform="translate(-30,-926) scale(1,1)"><path fill="none" stroke="#000000" d="M 384 1184 L 96 1184" stroke-miterlimit="10" stroke-dasharray="6,4"/></g><g transform="translate(-30,-926) scale(1,1)"><path fill="#000000" stroke="none" d="M 106.16267485762415 1179.7904822439841 L 96 1184 L 106.16267485762415 1188.2095177560159"/></g><g transform="translate(-30,-926) scale(1,1)"><path fill="none" stroke="#000000" d="M 106.16267485762415 1179.7904822439841 L 96 1184 L 106.16267485762415 1188.2095177560159 L 106.16267485762415 1179.7904822439841" stroke-miterlimit="10"/></g><g transform="translate(-30,-926) scale(1,1)"><g><path fill="none" stroke="none"/><text fill="#000000" stroke="none" font-family="Arial" font-size="13px" font-style="normal" font-weight="normal" text-decoration="none" x="109" y="1135">[recognized = true] username are already used</text></g></g><g transform="translate(-30,-926) scale(1,1)"><g><path fill="none" stroke="none"/><text fill="#000000" stroke="none" font-family="Arial" font-size="13px" font-style="normal" font-weight="normal" text-decoration="none" x="117" y="1175">[recognized = true] Invalid password</text></g></g><g transform="translate(-30,-926) scale(1,1)"><path fill="none" stroke="#4e73be" d="M 400 1248 L 688 1248 L 712 1152" stroke-miterlimit="10" stroke-dasharray="6,4"/></g><g transform="translate(-30,-926) scale(1,1)"><path fill="#4e73be" stroke="none" d="M 410.16267485762415 1243.7904822439841 L 400 1248 L 410.16267485762415 1252.2095177560159"/></g><g transform="translate(-30,-926) scale(1,1)"><path fill="none" stroke="#4e73be" d="M 410.16267485762415 1243.7904822439841 L 400 1248 L 410.16267485762415 1252.2095177560159 L 410.16267485762415 1243.7904822439841" stroke-miterlimit="10"/></g><g transform="translate(-30,-926) scale(1,1)"><g><path fill="none" stroke="none"/><text fill="#4e73be" stroke="none" font-family="Arial" font-size="13px" font-style="normal" font-weight="normal" text-decoration="none" x="429" y="1239">[recognized = false]</text></g></g><g transform="translate(-30,-926) scale(1,1)"><path fill="none" stroke="#4e73be" d="M 400 1376 L 1016 1376" stroke-miterlimit="10"/></g><g transform="translate(-30,-926) scale(1,1)"><path fill="#4e73be" stroke="none" d="M 1005.8373251423759 1380.2095177560159 L 1016 1376 L 1005.8373251423758 1371.7904822439841"/></g><g transform="translate(-30,-926) scale(1,1)"><path fill="none" stroke="#4e73be" d="M 1005.8373251423759 1380.2095177560159 L 1016 1376 L 1005.8373251423758 1371.7904822439841 L 1005.8373251423759 1380.2095177560159" stroke-miterlimit="10"/></g><g transform="translate(-30,-926) scale(1,1)"><g><path fill="none" stroke="none"/><text fill="#4e73be" stroke="none" font-family="Arial" font-size="13px" font-style="normal" font-weight="normal" text-decoration="none" x="797" y="1359">connectClient()</text></g></g><g transform="translate(-30,-926) scale(1,1)"><path fill="none" stroke="#000000" d="M 728 1112 L 768 1112" stroke-miterlimit="10"/></g><g transform="translate(-30,-926) scale(1,1)"><path fill="none" stroke="#000000" d="M 768 1112 L 768 1152" stroke-miterlimit="10"/></g><g transform="translate(-30,-926) scale(1,1)"><path fill="none" stroke="#000000" d="M 768 1152 L 728 1152" stroke-miterlimit="10"/></g><g transform="translate(-30,-926) scale(1,1)"><path fill="#000000" stroke="none" d="M 738.1626748576241 1147.7904822439841 L 728 1152 L 738.1626748576241 1156.2095177560159"/></g><g transform="translate(-30,-926) scale(1,1)"><path fill="none" stroke="#000000" d="M 738.1626748576241 1147.7904822439841 L 728 1152 L 738.1626748576241 1156.2095177560159 L 738.1626748576241 1147.7904822439841" stroke-miterlimit="10"/></g><g transform="translate(-30,-926) scale(1,1)"><g><path fill="none" stroke="none"/><text fill="#000000" stroke="none" font-family="Arial" font-size="13px" font-style="normal" font-weight="normal" text-decoration="none" x="781" y="1135">checkIfSame()</text></g></g><g transform="translate(-30,-926) scale(1,1)"><path fill="none" stroke="#4e73be" d="M 712 1296 L 688 1344 L 400 1344" stroke-miterlimit="10" stroke-dasharray="6,4"/></g><g transform="translate(-30,-926) scale(1,1)"><path fill="#4e73be" stroke="none" d="M 410.16267485762415 1339.7904822439841 L 400 1344 L 410.16267485762415 1348.2095177560159"/></g><g transform="translate(-30,-926) scale(1,1)"><path fill="none" stroke="#4e73be" d="M 410.16267485762415 1339.7904822439841 L 400 1344 L 410.16267485762415 1348.2095177560159 L 410.16267485762415 1339.7904822439841" stroke-miterlimit="10"/></g><g transform="translate(-30,-926) scale(1,1)"><g><path fill="none" stroke="none"/><text fill="#4e73be" stroke="none" font-family="Arial" font-size="13px" font-style="normal" font-weight="normal" text-decoration="none" x="445" y="1335">insert done</text></g></g></g></svg>